<?xml version="1.0" encoding="utf-8"?>
<!-- Generator: Adobe Illustrator 19.0.0, SVG Export Plug-In . SVG Version: 6.00 Build 0)  -->
<svg version="1.1" id="Layer_3" xmlns="http://www.w3.org/2000/svg" xmlns:xlink="http://www.w3.org/1999/xlink" x="0px" y="0px"
	 viewBox="0 0 500 500" style="enable-background:new 0 0 500 500;" xml:space="preserve">
<g id="XMLID_2_">
	<g id="XMLID_19_">
		<g id="XMLID_26_">
			<path id="XMLID_27_" style="fill:#053F58;" d="M371.2,500c-4.3,0-7.9-0.4-7.9-4.7c0-103.5,3.5-288.2,8.4-433.5
				c0.9-25.7,3.1-56.3,3.1-56.6c0.3-4.3,5.1-5.5,9.5-5.2c4.3,0.3,6.5,2,6.2,6.3c0,0.3-2.3,30.6-3.1,56
				c-4.9,145.1-8.4,329.6-8.4,432.9C379.1,499.6,375.5,500,371.2,500z"/>
		</g>
		<path id="XMLID_24_" style="fill:#E3D6BE;" d="M486.9,186.1c-4.1-7.5-8.3-15-12.4-22.5c-2-3.6-4-7.2-6-10.8
			c-1.3-2.3-2.3-5.3-4.7-6.7c-0.5-0.3-1-0.4-1.5-0.5c-0.3-0.2-0.6-0.3-1-0.4C409.7,135,357.7,128,305.4,123.3
			c-1.3-0.1-2.2,0.4-2.8,1.1c-0.9,0.4-1.7,1.1-2.1,2.3c-7.8,22.8-11.9,46.6-15.8,70.3c0,0.2,0,0.5,0,0.7c-0.8,2.1,0.2,5.2,3.2,5.5
			c34,3.6,68,7.2,102,10.8c12.5,2.5,25.2,4.4,37.9,5.7c5.4,0.5,11.2,1.6,16.6,1.1c5-0.5,8.7-4.1,12.5-7c9.5-7.3,19-14.7,28.5-22
			c0.6-0.5,1-1,1.2-1.6C487.4,189.1,487.7,187.6,486.9,186.1z"/>
		<path id="XMLID_22_" style="fill:#E3D6BE;" d="M470.2,97.2c-0.2-15.3-1.5-30.6-3.7-45.8c-1-6.8-1.9-32.5-14.9-27.1
			c-0.3,0.1-0.6,0.3-0.9,0.5c-47,3.4-93.8,9-140.3,16.7c-0.4,0.1-0.7,0.2-1,0.3c-1-0.3-2.1,0-3,1c-11.7,13.8-21.9,28.6-30.5,44.5
			c0,0.1-0.1,0.1-0.1,0.2c-0.4,0.7-0.7,1.3-1.1,2c-0.9,1.6-0.3,3.2,0.7,4.2c0.2,0.6,0.7,1.2,1.4,1.7c7.7,5,15.4,9.9,23.3,14.6
			c1.6,0.9,4.4,3,7.1,5c3.9,3,8.9,4.2,13.7,3.5c24.7-3.7,102.9-15,145.9-16.5c2.4-0.1,3.5-2.1,3.3-3.9
			C470.1,97.8,470.2,97.5,470.2,97.2z"/>
		<path id="XMLID_20_" style="fill:#E3D6BE;" d="M303.8,318.4c0.3,1.7,1.7,3.3,3.9,2.8c47.1-9.7,94.9-15.7,142.9-17.8
			c2.1-0.1,3.2-1.8,3.2-3.5c0.4-0.2,0.7-0.5,1.1-0.9c1.8-2.4,3.7-4.8,5.5-7.2c6.1-6,12-12.1,17.8-18.4c0.5-0.6,0.8-1.2,0.9-1.8
			c0.8-1.1,0.9-2.7-0.2-3.9c-0.5-0.5-0.9-1-1.4-1.6c0-0.1-0.1-0.1-0.1-0.1c-11.3-12.5-23.8-23.7-37.4-33.6c-1.1-0.8-2.1-0.7-3-0.3
			c-0.3-0.1-0.6-0.1-0.9-0.1c-43.8,3.2-87.4,8.5-130.7,15.7c-0.3-0.1-0.6-0.2-0.9-0.2c-12.9-2-8.1,21.4-7.5,27.8
			c1.3,14.2,3.6,28.3,6.7,42.2C303.6,317.9,303.7,318.1,303.8,318.4z"/>
	</g>
	<path id="XMLID_18_" style="fill:#00A294;" d="M315.2,315.5c-1.2-13.3-7.6-26.4-12.3-38.8c-10.3-27.3-21.4-54.3-33.2-80.9
		C258,169.3,246.3,142.2,232,117c-5.8-10.2-13.4-19.3-24.6-23.8c-10.2-4.1-21.1-2.7-29.6,4.4c-10.6,8.9-16.9,23.6-23.4,35.5
		c-8.2,14.9-16,30-23.5,45.2c-2.7,5.5-8.7,19.7-15.8,36.7c-14.2-6.7-34.3-13.7-34.3-13.7c7-14.7,17.7-29.3,25.9-39.5
		c2.6-3.2,6.1-4,9.7-5.4c5.1-2,9.5-5.3,12.6-9.8c5.3-7.7,6.2-16.1,3.9-23.6c1.3-0.4,2.5-0.8,3.8-1c4.3-0.9,8.5-0.4,12.7-0.9
		c6.9-0.8,11.9-8.1,5.9-13.7c-6-5.6-16.2-5.1-23.6-3.7c-3.6,0.7-7.1,1.8-10.5,3.2c-5.9-4.2-13.3-6.5-21.2-5.7
		c-14.2,1.6-25.5,11-34.9,21c-10.6,11.5-20.5,23.7-30.1,36c-8.8,11.5-17.5,23.8-21.3,38c-3.8,14.2,0.5,29.9,9.8,40.7
		c11.5,13.2,37.8,29.7,53.3,37.8c3.2,1.7,7,3.8,10.9,6.1c-5.1,12.4-8.9,21.7-10,24.4c-2.8,6.4-4.9,13.1-4.4,19.6
		c0.9,11.2,10.5,16.8,20.6,18.3c12.6,1.8,25.7,1.1,38.4,1.7c-1.1,49.6,0,127.7,0,127.7c0,0-1.1,0.1-1.2,0.1
		c-6.6,5.5-11.4,11.5-16.7,18.3c-1.6,2-0.7,4.6,0.9,5.8c0.5,1.1,1.6,2,3.2,2h127.6c2.6,0,3.8-2.2,3.5-4.2c0.1-0.9-0.1-1.9-0.9-2.8
		c-5.4-6.3-10.8-12.6-16.2-18.8c1.1-16.2,3-33,5.1-49.8c3,1.9,6.6,2.8,10.8,2.1c0.3,0,0.5-0.1,0.7-0.2c0.8,0.8,1.7,1.4,2.7,2
		c4.5,2.5,10.1,1.8,14.1-1.1c0.5,0.5,1,1,1.5,1.4c4.4,3.3,10.2,2.7,14.6-0.3c11.3-7.9,9.3-25.3,9.3-38.4c0-10.4-1.3-29-2.3-44.6
		c2.9-0.7,5.8-1.4,8.5-2.4C309.4,337.3,316.3,328,315.2,315.5z"/>
	
		<line id="XMLID_17_" style="fill:none;stroke:#053F58;stroke-width:6;stroke-linecap:round;stroke-linejoin:round;stroke-miterlimit:10;" x1="176" y1="349.5" x2="172.4" y2="496.4"/>
	<g id="XMLID_12_">
		
			<path id="XMLID_16_" style="fill:none;stroke:#053F58;stroke-width:6;stroke-linecap:round;stroke-linejoin:round;stroke-miterlimit:10;" d="
			M130.1,123c-4.2,1-9.2,4.2-12.3,7.2"/>
		
			<path id="XMLID_15_" style="fill:none;stroke:#053F58;stroke-width:6;stroke-linecap:round;stroke-linejoin:round;stroke-miterlimit:10;" d="
			M105.2,114.5c3.2-3.7,7.7-6.2,12.4-7.2"/>
		
			<path id="XMLID_14_" style="fill:none;stroke:#053F58;stroke-width:6;stroke-linecap:round;stroke-linejoin:round;stroke-miterlimit:10;" d="
			M93.2,112.6c1.7-2.7,4.5-4.6,7.6-5.2"/>
		
			<path id="XMLID_13_" style="fill:none;stroke:#053F58;stroke-width:6;stroke-linecap:round;stroke-linejoin:round;stroke-miterlimit:10;" d="
			M120.2,129.4c0.3,1.5,0.5,5.1,0.8,6.6"/>
	</g>
	<g id="XMLID_6_">
		
			<path id="XMLID_11_" style="fill:none;stroke:#053F58;stroke-width:6;stroke-linecap:round;stroke-linejoin:round;stroke-miterlimit:10;" d="
			M277,407.9c1.4-3.6,1.3-8-1.2-11.1c-2.4-3-7.4-4-10.3-1.3c-1.3,1.2-2,2.9-2.6,4.5c-2.5,7.2-3,15.1-1.5,22.6"/>
		
			<path id="XMLID_10_" style="fill:none;stroke:#053F58;stroke-width:6;stroke-linecap:round;stroke-linejoin:round;stroke-miterlimit:10;" d="
			M265.6,395.4c-2.6-4.2-10.5-4.6-12.8-4.2c-5.1,1-7.2,7-7.8,12.2c-0.7,6.1,0.9,12.7,3.3,18.3"/>
		
			<path id="XMLID_9_" style="fill:none;stroke:#053F58;stroke-width:6;stroke-linecap:round;stroke-linejoin:round;stroke-miterlimit:10;" d="
			M245.4,394.9c-5.2-1-11.2-1.5-14.9,2.3c-2.9,2.9-3.2,7.5-2.9,11.7c0.2,2.5,0.7,5,2,7.2"/>
		
			<path id="XMLID_8_" style="fill:none;stroke:#053F58;stroke-width:6;stroke-linecap:round;stroke-linejoin:round;stroke-miterlimit:10;" d="
			M231.7,393.8c-0.5-1.9-1.1-3.9-1.1-5.9c0-2,0.7-4.1,2.2-5.4c1.4-1.2,3.3-1.6,5.2-1.9c3.6-0.6,7.1-0.9,10.7-0.9
			c2.7-0.1,5.8,0.2,7.7,2.1c2.1,2.1,2.1,5.5,1.9,8.4"/>
		
			<path id="XMLID_7_" style="fill:none;stroke:#053F58;stroke-width:6;stroke-linecap:round;stroke-linejoin:round;stroke-miterlimit:10;" d="
			M234.6,380.5c-1.7-18.9-2.9-39-2.8-58"/>
	</g>
	<g id="XMLID_3_">
		
			<line id="XMLID_5_" style="fill:none;stroke:#053F58;stroke-width:6;stroke-linecap:round;stroke-linejoin:round;stroke-miterlimit:10;" x1="241.5" y1="171.9" x2="242.5" y2="184.8"/>
		
			<path id="XMLID_4_" style="fill:none;stroke:#053F58;stroke-width:6;stroke-linecap:round;stroke-linejoin:round;stroke-miterlimit:10;" d="
			M255.2,202.3c1.6-0.5,3.2-1.1,4.8-1.6"/>
	</g>
</g>
</svg>
