<?xml version="1.0" encoding="utf-8"?>
<!-- Generator: Adobe Illustrator 19.0.0, SVG Export Plug-In . SVG Version: 6.00 Build 0)  -->
<svg version="1.1" id="Layer_1" xmlns="http://www.w3.org/2000/svg" xmlns:xlink="http://www.w3.org/1999/xlink" x="0px" y="0px"
	 viewBox="0 0 595.3 594.9" style="enable-background:new 0 0 595.3 594.9;" xml:space="preserve">
<path id="XMLID_27_" style="fill:#00A294;" d="M566.8,222.9c-16.7-24-33.4-48.3-53-69.3c-43.7-46.8-72.2-59.3-94.1-60.4
	c-21.9-1.1-46.8,1.9-45.5,20.8c1.4,18.9,20.2,10.7,28,9.8c7.8-0.9,11.6-1.1,15.6,0.7c-29.5,18.6-21,98.9,18.6,84.3
	c1.7-0.6,2.6-1.8,3-3.3c16.7,25.3,52.5,68.1,51,74.9c-1.2,5.3-32,27.2-52.3,40.3c-6.5-15.7-13.2-31.3-20-46.8
	c-17.4-39.7-34.8-80.4-56.2-118.2c-8.6-15.2-20-29-36.6-35.7c-15.3-6.1-31.5-4.1-44.2,6.6c-15.9,13.4-25.3,35.4-35.1,53.2
	c-12.3,22.3-23.5,47.8-34.5,70.8c-12,25.1-22.3,47.9-32,70.3c-30.1-7.6-74.2-21.6-74.7-27.1c-0.6-6.3,46.1-60.5,72-91
	c9-1.2,18.6,0.6,26.3-5.9c7.9-6.8,8.9-18.1,7.6-28.5c-1.5-12.2-6.8-29.6-16.3-37.7c5.2,0.1,10.4,0.1,15.6,0.2
	c5.9,0.1,11.8,0.1,17.7,0.2c4.4,0,9.3,0.3,13.4-2.2c6.5-4,7.8-13.2,4.6-20.4c-4.2-9.4-13.8-11.5-22.1-12.9
	c-22.5-3.9-44.9-4.3-66.1,6.3c-19.5,9.8-35.7,26.3-51,42.8c-33.2,35.7-63,75.4-88.8,118.3C6.3,282-2.8,301.7,0.8,325.4
	c3.5,22.3,16.5,41.2,32.3,54.3c19.5,16.2,43.5,24.6,66.3,32.5c12.5,4.3,25,8.2,37.7,11.7c-1.8,4.5-3.7,9.1-5.6,13.9
	c-3.9,9.7-7.4,19.6-6.7,29.4c1.3,16.7,15.6,25.2,30.8,27.4c19.1,2.8,39.2,4.9,58.5,5.9c42.3,2.1,84.6,0.9,127.1,1.4
	c20.6,0.2,41.2-0.3,61.7-2.1c18.7-1.6,39.1-1.4,56.9-7.6c17.3-6.1,27.6-19.9,26-38.7c-1.1-13-5.6-25.9-10.5-38.4
	c28.4-15.8,65.8-42.3,81.1-56c16.9-15.1,37.1-37.5,38.7-59.4C597.2,270.1,582.2,244.9,566.8,222.9z"/>
<g id="XMLID_23_">
	
		<path id="XMLID_26_" style="fill:none;stroke:#053F58;stroke-width:6;stroke-linecap:round;stroke-linejoin:round;stroke-miterlimit:10;" d="
		M436.3,205.8c-4.6-3.5-9.1-12.4-9.8-18.7"/>
	
		<path id="XMLID_25_" style="fill:none;stroke:#053F58;stroke-width:6;stroke-linecap:round;stroke-linejoin:round;stroke-miterlimit:10;" d="
		M402.9,161.3c-0.1-5.4,3-10.4,7-13.4c4-3,8.7-4.3,13.4-5.4"/>
	
		<path id="XMLID_24_" style="fill:none;stroke:#053F58;stroke-width:6;stroke-linecap:round;stroke-linejoin:round;stroke-miterlimit:10;" d="
		M418.8,122.3c5.8-3.3,11.7-4.8,17.7-4.4"/>
</g>
<g id="XMLID_19_">
	
		<path id="XMLID_22_" style="fill:none;stroke:#053F58;stroke-width:6;stroke-linecap:round;stroke-linejoin:round;stroke-miterlimit:10;" d="
		M170.1,123.6c3.9-1.2,8-1.6,11.8-0.1c3.9,1.5,8.1,2.2,11.4,4.9"/>
	
		<path id="XMLID_21_" style="fill:none;stroke:#053F58;stroke-width:6;stroke-linecap:round;stroke-linejoin:round;stroke-miterlimit:10;" d="
		M183.2,143.4c7.6-1.4,15.7,1,21.8,6.4"/>
	
		<path id="XMLID_20_" style="fill:none;stroke:#053F58;stroke-width:6;stroke-linecap:round;stroke-linejoin:round;stroke-miterlimit:10;" d="
		M178.2,200.4c5.8-3.9,9.8-10.8,10.8-18.3"/>
</g>
<g id="XMLID_15_">
	
		<path id="XMLID_18_" style="fill:none;stroke:#053F58;stroke-width:6;stroke-linecap:round;stroke-linejoin:round;stroke-miterlimit:10;" d="
		M264.4,205c3.2,4.3,8.2,6.8,13.2,6.4c4.9-0.4,9.7-3.6,12.3-8.4"/>
	
		<path id="XMLID_17_" style="fill:none;stroke:#053F58;stroke-width:6;stroke-linecap:round;stroke-linejoin:round;stroke-miterlimit:10;" d="
		M333.6,203.6c2.5,3.5,6.6,5.5,10.6,4.9c4-0.6,7.6-3.6,9.2-7.7"/>
	
		<path id="XMLID_16_" style="fill:none;stroke:#053F58;stroke-width:6;stroke-linecap:round;stroke-linejoin:round;stroke-miterlimit:10;" d="
		M300.4,243.5c5.6-1.7,11.5-2.2,17.3-1.7"/>
</g>
</svg>
