<svg xmlns="http://www.w3.org/2000/svg" viewBox="0 0 600 800"><defs><style>.cls-1{fill:#f87761;}.cls-2{fill:none;stroke:#063f58;stroke-linecap:round;stroke-linejoin:round;stroke-width:6px;}.cls-3{fill:#063f58;}.cls-4{fill:#e3d6bd;}</style></defs><g id="theo-empty-inbox"><path class="cls-1" d="M475.86,316.38c-2.84,2.48-10.86,9-14.62,11.81-8.48.67-16.87,2.25-25.47,2.28-7.95,0-44.85,3.1-72.75,6.2A88.73,88.73,0,0,0,366.35,320c1-11.29-4.21-20.57-15.15-24.38-11.61-4-25.09-3.58-37.24-4.32q-40.23-2.46-80.55-2.7c-26.68-.17-53.92-.65-80.5,1.87-10.73,1-20.32,4-28.26,11.66-7.3,7-10.25,16.73-7.47,26.54,3.49,12.32,13.48,23.15,21,33.15,9.41,12.52,18.12,24.8,28.13,36.84,8.54,10.28,17.32,20.12,26.22,29.69-.23.19-.47.36-.69.55a3.43,3.43,0,0,0-.44.19c-10.76,5.9-9.24,22.23-10,32.54q-.87,12.12-1.75,24.25c-.52,7.33-1.44,14.8-.88,22.15.91,12.06,7.19,24.6,20.05,27.11,12.63,2.47,24.07-4.75,32.56-13.37s16.56-18.31,24.47-27.82c3.66,3.51,7.78,6.84,11.94,8.33,7.8,2.8,14.71-.49,19.76-6-.83,26.57-2,64.2-2.72,83.55a83.39,83.39,0,0,1-10.6,9.63c-2.61,2-1.58,7.65,3,7.65h54c4.08,0,5.47-5.1,5.61-8.55s-1.14-128-3.33-179.77c3.18-6.34,6.3-12.72,9.27-19.17l.6-1.3c38.3-2.46,93.31-8.27,126.05-12.95,3.13-.44,7.32-1.36,8.15-5.08,3.92-17.64,5.94-46.37,6.29-51S478.36,313.66,475.86,316.38ZM215.51,479.62c-1-12.75-2.5-22.52-1.75-29q7.1,7.31,14.18,14.53C223.47,470.75,218.8,476.69,215.51,479.62Z"/><line class="cls-2" x1="170.54" y1="356.53" x2="165.04" y2="352.88"/><line class="cls-2" x1="177.04" y1="334.2" x2="171.54" y2="330.55"/><path class="cls-2" d="M198.66,343a16.91,16.91,0,0,0-6.52,8.74"/><path class="cls-3" d="M369.49,386.39a3.35,3.35,0,0,0-1.48-2.71,3.93,3.93,0,0,0-4.3-4.72c-4.09.59-8.17,1.3-12.21,2.18-1,.21-2,.37-3,.59-1.87-2.2-6.36-1.51-6.2,2.11,2.53,57.26,3.64,184.85,3.83,209.2a4.09,4.09,0,0,0,4.09,4.05h16.13a4.08,4.08,0,0,0,4.09-4C370.79,568.93,372.32,442.83,369.49,386.39Z"/><path class="cls-4" d="M431.38,358.4A140.64,140.64,0,0,0,429,330.47c-2.57-13.86-8.1-33.23-24.48-35.33-19.37-2.48-39.8-.9-59.21.44-19.91,1.37-49.78,3.3-69.66,5.05-9.7.86-23,2.2-32.09,4.34s-12.48,7.94-14.34,13.4c-2.48,7.31-4.34,17.54-5.55,25.16a251.07,251.07,0,0,0-3,43.65,3.64,3.64,0,0,0,.21,1.18,7.33,7.33,0,0,0-.82.9c-9.22,12-16,20-23.57,33.36a34,34,0,0,0-2.06,4.29c.41-.28.81-.56,1.25-.82,2-1.2,5.61-.2,5.46,2.66a14.86,14.86,0,0,1-.28,2.13,24.47,24.47,0,0,1,5.14-4.22,3.55,3.55,0,0,1,5.4,3.6,13.1,13.1,0,0,1-.93,3.39,27.4,27.4,0,0,1,5.39-3c2.88-1.2,5.6,2.25,4.29,4.86l-5.08,10.17a12.17,12.17,0,0,0-1.05,3.17c7.23-3.15,13.9-9.79,19.87-14,12.87-9.08,29.63-27.38,39.47-39.78a2.72,2.72,0,0,0,.63-1.83H428.17a3.27,3.27,0,0,0,3.37-3.24,3.49,3.49,0,0,0,.57-1.79C432.47,380.89,431.34,361.12,431.38,358.4Z"/><path class="cls-2" d="M242.64,308.46c7.43-1.38,17.19,3.89,21,10.42,3.31,5.7,5,12.3,5.94,18.83,2.25,16.36,4.28,34.71,5,51.2"/><path class="cls-2" d="M225.15,390.49q22.22-.33,44.43,1.23"/><path class="cls-2" d="M175.39,226.35c.7,12.9,2.27,26.37,9.49,37.09s21.72,17.6,33.48,12.23c8.32-3.79,13.42-12.95,13.84-22.08.31-6.54-1.81-13.55-7-17.55-8.43-6.48-16.06-3.84-20.08,7.75-10.09,29.18-2.24,63,15.31,88.44,6.85,9.9,27.92,19.8,39.9,18.66"/><path class="cls-2" d="M165.94,205.06c6,6.26,11.77,6.12,14.55,6a6,6,0,0,0,4.78-3.25c.73-1.6-.44-3.56-2-4.31A10.26,10.26,0,0,0,178,203l-11.56.91a3,3,0,0,0-3,1.9l-3.14,5.46c-1,1.66-1.93,3.43-1.86,5.33s1.85,4.39,3.76,4.41a4,4,0,0,0,3.45-2C168.53,215.08,167.85,211.32,165.94,205.06Z"/><path class="cls-2" d="M351,339.89q-4.44-51.11-6.7-102.36a203.42,203.42,0,0,0,33.39-.2,87.8,87.8,0,0,1-.13,20.81q-15.8.21-31.58.76"/><path class="cls-3" d="M363,341.73a11.41,11.41,0,0,0-20.13-6,2,2,0,0,0-.6.59c-2.83,4.25-1.41,10.64,3,13.68a11.64,11.64,0,0,0,6.59,1.94,13.38,13.38,0,0,0,7.35-2.2,8.81,8.81,0,0,0,2.74-2.69A8.32,8.32,0,0,0,363,341.73Z"/><path class="cls-1" d="M428,301.53c-.26-8.11-1.18-17.62-9.81-21-4.31-1.72-9.27-1.42-13.82-1.42q-8.73,0-17.46.28c-9.21.29-18.75,1.43-23.89,10.07a3.44,3.44,0,0,0,.3,4.17,5.16,5.16,0,0,0,6.1,3.6,17.6,17.6,0,0,0,3-.79,14.61,14.61,0,0,0,1.82-.23,24.1,24.1,0,0,0,4.91-1.67l6.32-.74a58.75,58.75,0,0,1,.94,20.51c-.47,4.29.22,9.5,5.51,10.18s7.35-5.28,8.79-9.39c.36-1,.66-2.08.93-3.13q-.18,5-.38,9.93a3.87,3.87,0,0,0,3.82,3.82c6.09.13,8.24-6.14,9.52-11.14.07-.26.12-.53.18-.8a25.41,25.41,0,0,0,1.14,9.45c.77,2.1,3.44,3.85,5.61,2.29C429,320.07,428.24,309.83,428,301.53Z"/></g></svg>