<?xml version="1.0" encoding="utf-8"?>
<!-- Generator: Adobe Illustrator 19.0.0, SVG Export Plug-In . SVG Version: 6.00 Build 0)  -->
<svg version="1.1" id="Layer_2" xmlns="http://www.w3.org/2000/svg" xmlns:xlink="http://www.w3.org/1999/xlink" x="0px" y="0px"
	 viewBox="0 0 595.3 594.9" style="enable-background:new 0 0 595.3 594.9;" xml:space="preserve">
<g id="XMLID_16_">
	<g id="XMLID_25_">
		<g id="XMLID_53_">
			<path id="XMLID_82_" style="fill:#E3D6BE;" d="M413.3,410.9c-83.2,0-150-58.9-152.7-135.1l-0.1-2c-1.4-38.4,13.8-75.2,42.7-103.7
				c27.6-27.1,64.9-43.7,105-46.5l25.7-1.8c43.8-3.1,115.3-1.5,118.3-1.4l40.3,1l-1.9,80.6l-40.3-1c-0.7,0-70.7-1.6-110.6,1.2
				l-25.7,1.8c-41.4,3-74.1,33-72.9,66.9l0.1,2.1c1.1,32.6,33.5,57.8,73.5,57.2c51.6-0.8,135.6-1.3,136.4-1.3l40.3-0.2l0.5,80.6
				l-40.3,0.2c-0.8,0-84.4,0.5-135.7,1.3C415.1,410.9,414.2,410.9,413.3,410.9z"/>
		</g>
		<path id="XMLID_27_" style="fill:#F79520;" d="M592,409.3l-0.5-80.6l-40.3,0.2c-0.4,0-19.1,0.1-44.3,0.3
			c-1.2,17.7-1.5,35.3-1.3,53.1c0.1,9.2,0.3,18.4,0.4,27.6c25.8-0.2,45.3-0.3,45.7-0.3L592,409.3z"/>
		<path id="XMLID_26_" style="fill:#FCFCFB;" d="M512.6,119.9c0.6,26.9,1.4,53.8,1.7,80.7c20.4,0.1,35.8,0.4,36.1,0.5l40.3,1
			l1.9-80.6l-40.3-1C550.9,120.4,534.3,120,512.6,119.9z"/>
	</g>
	<path id="XMLID_24_" style="fill:#00A294;" d="M434.1,121.8c1.3-0.1,2.5-0.2,3.9-0.3c-14.8-15.1-39.9-20.5-60-23.3
		c-22.7-3.2-45.8-2.2-68.4,1.7c-44.7,7.6-86.2,26.7-126.9,46.2c-22.4-25.1-45.1-50.7-69.9-73.4C102.1,62.9,89.6,55,74.7,54
		c-13.6-0.9-26,4.9-33.2,16.5c-9.1,14.6-10.9,34.4-14.1,50.9c-4,20.7-6.3,43.7-9.1,64.6C10.2,246.5,7.3,290.5,3,354
		c-0.6,8.7-0.8,17.3,2.3,24.8c5.3,12.8,18.8,15.8,31.3,13.7c2.7-0.5,5.4-1,8.1-1.7c5.1,7.7,10,15.5,14.8,23.4
		c3.7,6.2,4.8,7.2,8.3,13.5c3.5,6.3,8.3,12.9,10.7,19.7c2.4,7-5.3,16.4-8.6,22.2c-3.8,6.7-7.6,13.3-11.4,20
		c-8.1,14-12.1,21.1-20.7,34.8c-2,3.2-5.4,16.4,8.2,16.4s71.9,0,88.3,0c16.4,0,9.3-13,0-20.6c11-17.6,21.9-37.5,25.2-54.8
		c4.6-23.4-1-37.8-10.7-58.9c-5-10.9-10.7-21.6-17-31.9c-1.4-2.3-2.9-4.5-4.6-6.7c0.8-0.2,1.6-0.4,2.4-0.6
		c13.7,6.6,27.3,13.1,41.2,19.5c35,53,78.6,125,93.2,149.2c2.8,4.6,8.8,6.2,13.5,3.5c15-8.6,46-26.5,61.8-35.3
		c2.4-1.3,5.8-4.2,4.8-7.4c-1-3.2-5.5-4.2-7.1-4.6c-5.4-1.4-10.7-3-16-4.8c-10-20.4-20.4-40.6-31.1-60.7c2.6,0.4,5,0.8,6.9,1
		c20.1,1.8,40.4,0.6,60.4-1.6c19-2.2,38.8-4.8,54.9-15.4c-25.7-0.2-49.8-6-70.9-16.2c0.5-0.3,1-0.6,1.4-0.9c4-2.3,7.9-4.6,11.9-6.9
		c5.6-3.2,13-6.4,15.4-12.9c1.7-4.7,0.5-10.1-3.9-13c-5.2-3.3-12-1.8-17.7-0.7c-15.5,2.9-31.3,7.6-47.2,6.3
		c-3.7-3.6-7.2-7.4-10.4-11.4c-15.8-6.4-32.7-14.8-48.9-24.3c9.2-3.9,18.6-8.2,27.1-13.4c-4.9-13-7.8-27-8.3-41.6l-0.1-2
		c-0.4-11,0.6-21.9,2.9-32.5c-2-2.4-4-4.8-5.9-7.1c-7.1-8.9-14.3-17.7-21.6-26.4c18.9-8.7,37.9-17.4,56.8-26.1
		c3.3-4,6.8-7.8,10.5-11.5c8.5-8.4,17.9-15.7,28.1-22c8.4,1.3,16.7,3.2,24.8,5.9c7.6,2.6,15,6.9,22.8,8.6
		c12.4,2.7,23.2-6.8,18.5-19.6c-2.4-6.5-7.6-11.5-12.6-16.1c7.6-1.6,15.4-2.7,23.3-3.3L434.1,121.8z"/>
	<g id="XMLID_20_">
		
			<path id="XMLID_23_" style="fill:none;stroke:#053F58;stroke-width:6;stroke-linecap:round;stroke-linejoin:round;stroke-miterlimit:10;" d="
			M101.2,206.6c8.8,4.4,19.5,4.9,28.7,1.4c9.2-3.5,16.9-10.9,20.6-20"/>
		
			<line id="XMLID_22_" style="fill:none;stroke:#053F58;stroke-width:6;stroke-linecap:round;stroke-linejoin:round;stroke-miterlimit:10;" x1="94.6" y1="174.6" x2="97.4" y2="184"/>
		
			<line id="XMLID_21_" style="fill:none;stroke:#053F58;stroke-width:6;stroke-linecap:round;stroke-linejoin:round;stroke-miterlimit:10;" x1="130.4" y1="162" x2="133.9" y2="171.8"/>
	</g>
	<g id="XMLID_17_">
		
			<path id="XMLID_19_" style="fill:none;stroke:#053F58;stroke-width:6;stroke-linecap:round;stroke-linejoin:round;stroke-miterlimit:10;" d="
			M182.3,397c16.4,9.8,94.4,31.3,103.2,32.5"/>
		
			<path id="XMLID_18_" style="fill:none;stroke:#053F58;stroke-width:6;stroke-linecap:round;stroke-linejoin:round;stroke-miterlimit:10;" d="
			M343.7,419c5.9,3.8,12.9,5.6,19.9,5.1"/>
	</g>
</g>
</svg>
