<?xml version="1.0" encoding="utf-8"?>
<!-- Generator: Adobe Illustrator 19.0.0, SVG Export Plug-In . SVG Version: 6.00 Build 0)  -->
<svg version="1.1" id="Layer_2" xmlns="http://www.w3.org/2000/svg" xmlns:xlink="http://www.w3.org/1999/xlink" x="0px" y="0px"
	 viewBox="0 0 595.3 594.9" style="enable-background:new 0 0 595.3 594.9;" xml:space="preserve">
<g id="XMLID_16_">
	<path id="XMLID_56_" style="fill:#00A294;" d="M479.3,341.7c-0.5,0.2-1,0.5-1.3,0.8c-0.1-0.7-0.3-1.5-0.5-2.2
		c23.2-13.8,43.6-38.4,31.8-66.6c-5.2-12.5-14.9-22.3-24.4-31.6c-12.7-12.4-25.4-24.7-38.1-37c-0.4-0.4-0.9-0.7-1.3-0.9
		c-0.4-1.7-0.9-3.3-1.3-5c-10.3-38.4-20.4-77.7-34.5-114.9c-5.7-15-14.1-29.1-28.3-37.4c-13-7.7-28.1-8.1-41.1-0.2
		c-16.3,9.9-27.9,28.5-39.3,43.3c-14.3,18.5-28.1,40-41.2,59.3c-12.7,18.5-23.9,35.6-34.5,52.3c-11-12.3-22.1-24.6-33-37
		c-5.9-6.8-12.5-14.6-16.1-23.3c0.1-0.3,0.1-0.6,0.1-1c0-39.4-2.1-78.8-6.5-117.9c-0.7-6.4-1.1-13.7-6.1-18.4
		c-4-3.8-10.3-5.2-15.1-2c-5.5,3.6-5.9,10.4-6.4,16.4c-0.6,6.1-1.1,12.1-1.6,18.2c-6.6-0.9-13.2-1.6-19.8-2.1
		c-6.7-0.5-15.6-2.3-21.8,1.3c-5.6,3.3-7.3,10-8.6,15.9c-2.1,9.1-3.9,18.4-5.3,27.6c-2,13.4-6.6,29,5.4,38.9c6.3,5.2,14,8.8,22,11.3
		c-2.1,13.3-3.5,26.8-4.1,40.2c-0.6,14.6-0.2,29.9,7.5,42.9c7.2,12.2,18.9,21.1,29.6,30c12,10,24.2,19.8,36.6,29.3
		c-6.7,11.3-13.7,23-21.2,35.6c-4.9,8.3-9.5,16.7-10.2,25.7c-1.2,15.3,10.7,25,24.1,29.1c16.2,5,33.6,6.8,50.3,10.1
		c-6.3,16.5-14.8,39.4-18.6,49.2c-20.3,52.8-38.2,96.2-61.3,147.8c0,0.1-9.2,9-12.6,12c-3.4,3-5.4,12.6,0.4,12.6
		c28.7,0.3,76.1,1,84.7,1c8.7,0,12.1-3.9,16.4-12.8c3.8-7.8,50.4-128.9,75.4-192c10.8,2.2,21.7,4.2,32.6,6c0.1,0,0.2,0,0.3,0
		c6.4,63.3,5.9,127.1-1.7,190.3c-0.2,1.4-2.6,8.4,5.7,8.4c8.3,0,99.1,0,99.1,0c6.3,0,6-7.3,0.6-11.5c-5.4-4.2-10.7-6.9-16.1-11.1
		c0.3-56.1-2-112.2-7.1-168.1c9.7,0.2,19.3-0.1,28.5-1.7c16.6-3.1,27.9-14.2,29-31.4c0.1-1,0.1-2.1,0.1-3.1c6.7,0.9,13.3-4,17.5-8.7
		c4.4-5.1,6.7-12.6,2.8-18.8C495.4,331.8,486.4,338.7,479.3,341.7z"/>
	<g id="XMLID_27_">
		
			<path id="XMLID_55_" style="fill:none;stroke:#053F58;stroke-width:6;stroke-linecap:round;stroke-linejoin:round;stroke-miterlimit:10;" d="
			M114.3,124.4c6.2,1,15.8,1.6,21.5-1.1c5.7-2.7,13-17.8-0.1-23.6c-13.1-5.9-27.9-7.7-42.2-6.7"/>
		
			<path id="XMLID_54_" style="fill:none;stroke:#053F58;stroke-width:6;stroke-linecap:round;stroke-linejoin:round;stroke-miterlimit:10;" d="
			M135.6,99.7c4.9-1.4,10.3-9.9,10.2-15c-0.1-5.1-2.2-10.4-6.5-13.3c-3.5-2.4-7.9-3-12.1-3.5c-9.6-1.2-19.3-2.4-28.9-3.6"/>
		
			<path id="XMLID_53_" style="fill:none;stroke:#053F58;stroke-width:6;stroke-linecap:round;stroke-linejoin:round;stroke-miterlimit:10;" d="
			M142.2,70.3c7.7-8,9.7-24.9,1.4-32.3"/>
	</g>
	
		<path id="XMLID_26_" style="fill:none;stroke:#053F58;stroke-width:6;stroke-linecap:round;stroke-linejoin:round;stroke-miterlimit:10;" d="
		M450.2,212c15.2,46.7,27.5,101.1,32.4,150"/>
	<g id="XMLID_17_">
		<path id="XMLID_25_" style="fill:#053F58;" d="M378.2,209.1c-8.7-1.2-16.3-1.6-25.4-4.9c-9.2-3.3-17.3-5.3-26.3-10.2
			c-2.6-1.4-5.8,0.3-6,3.3c-0.5,7.2-0.2,14.5,1.2,21.6l0.3-0.1c7.7-3.1,16.8-2.8,24.3,0.9c7.5,3.6,15.6,13.8,17.4,22l0.6,2.6
			c1-0.5,2-1,3-1.6c8.3-5.1,15.1-14.9,17.2-24.9C385.2,213.7,382.3,209.7,378.2,209.1z"/>
		
			<line id="XMLID_24_" style="fill:none;stroke:#053F58;stroke-width:6;stroke-linecap:round;stroke-linejoin:round;stroke-miterlimit:10;" x1="332.8" y1="170.8" x2="334" y2="158.8"/>
		
			<line id="XMLID_23_" style="fill:none;stroke:#053F58;stroke-width:6;stroke-linecap:round;stroke-linejoin:round;stroke-miterlimit:10;" x1="384.6" y1="183" x2="385.7" y2="170.8"/>
		
			<path id="XMLID_22_" style="fill:none;stroke:#053F58;stroke-width:6;stroke-linecap:round;stroke-linejoin:round;stroke-miterlimit:10;" d="
			M322.9,114.7c5.7-7.2,15.7-10.7,24.6-8.6"/>
		
			<path id="XMLID_21_" style="fill:none;stroke:#053F58;stroke-width:6;stroke-linecap:round;stroke-linejoin:round;stroke-miterlimit:10;" d="
			M386.3,135.3c4.8,1.2,8.6,5.3,11.6,9.2"/>
		<g id="XMLID_18_">
			
				<path id="XMLID_20_" style="fill:none;stroke:#053F58;stroke-width:6;stroke-linecap:round;stroke-linejoin:round;stroke-miterlimit:10;" d="
				M326.4,194.1c-2.6-1.4-5.8,0.3-6,3.3c-0.7,10,0.1,20.1,3.4,29.6c1.6,4.7,4,9.3,7.5,12.8c9.1,9.2,24.9,9.8,35.9,3
				c8.3-5.1,15.1-14.9,17.2-24.9c0.9-4.1-2.1-8.1-6.2-8.6c-8.7-1.2-16.3-1.6-25.4-4.9C343.5,201,335.5,199,326.4,194.1z"/>
			
				<path id="XMLID_19_" style="fill:none;stroke:#053F58;stroke-width:6;stroke-linecap:round;stroke-linejoin:round;stroke-miterlimit:10;" d="
				M321.9,218.8c7.7-3.1,16.8-2.8,24.3,0.9c7.5,3.6,15.6,13.8,17.4,22"/>
		</g>
	</g>
</g>
</svg>
