<?xml version="1.0" encoding="utf-8"?>
<!-- Generator: Adobe Illustrator 19.0.0, SVG Export Plug-In . SVG Version: 6.00 Build 0)  -->
<svg version="1.1" id="Layer_3" xmlns="http://www.w3.org/2000/svg" xmlns:xlink="http://www.w3.org/1999/xlink" x="0px" y="0px"
	 viewBox="0 0 595.3 594.9" style="enable-background:new 0 0 595.3 594.9;" xml:space="preserve">
<g id="XMLID_54_">
	<path id="XMLID_73_" style="fill:#00A294;" d="M471.3,133.5c-6.8-2-14.2-2.1-21.3-1.5c-7.8,0.6-16.7,1.3-23.6,5.2
		c-0.4,0.2-0.7,0.5-1.1,0.7c-2.5-3.1-5.8-5.5-10.1-5.1c-6.8,0.6-10.1,8-11.5,13.5c-3.8,14.3-4.2,30.6-8.9,44.6
		c-6.5,18.9-13.9,38.4-19.9,57.4c-11.9-1.6-25.6-3.4-38.1-5.5c-4.6-13.1-9.3-26.2-14.2-39.2c-13.5-36.3-26.9-73.4-44-108.2
		c-6.9-14-16.4-26.9-30.9-33.7c-13.3-6.3-28-5.3-39.8,3.6c-14.9,11.1-24.4,30.2-34.1,45.6c-12.1,19.2-23.8,38.7-35,58.5
		C116.1,209.2,62.1,321.3,58,334.5c-4.2,8.3-7.7,17.1-7.5,25.8c0.3,15,12.7,23.2,26.1,26c7.3,1.5,14.9,2.4,22.5,3
		c-1,8.3-1.8,16.6-2.6,24.9c-0.7,6.9-1.3,13.8-2,20.8c-3.9,3.2-7.8,6.5-11.7,9.7c-4.9,4.1-10.2,7.2-11.1,13.9
		c-0.6,3.9,2.9,7.2,6.5,7.6c4.5,0.5,9,0.3,13.4-0.5c-1.3,13.2-2.9,26.4-2.3,39.6c-0.3,1.1-0.3,2.3,0.2,3.5c0.3,3.5,3.9,5.7,7.2,5.7
		c6.2,1.7,11.4-3.8,14.9-10.1c2.3,7.1,7,14.1,15.3,12.4c7.2-1.5,10.6-9.9,13-17c1.3,5,3.8,9.6,8.8,10.7c0.2,28.7,0.5,49.3,0.5,49.3
		c-0.1,0-1.5,0.1-1.6,0.1c-8.8,7.3-15.3,15.4-22.4,24.4c-2.2,2.7-1,6.1,1.2,7.7c0.7,1.5,2.1,2.7,4.2,2.7h170.6c3.5,0,5-3,4.7-5.6
		c0.1-1.3-0.2-2.6-1.2-3.8c-7.2-8.4-14.4-16.8-21.6-25.2c3.5-50.2,12.2-104.1,19-155.1c15.4-0.4,31.8-1,46.5-5.1
		c15.8-4.5,25.7-16.3,25.3-33.1c-0.3-9.3-2.4-18.6-5.2-27.8c0,0,0,0,0,0c18.5,1.3,36.6,3.8,51.2-10c12-11.3,17.8-28,24.2-42.8
		c8.8-20.3,17.6-40.7,26.5-61c4-9.3,8.1-18.6,12.1-27.9c3.8-8.7,8.1-17.4,9.8-26.7C495.6,154,488.3,138.4,471.3,133.5z"/>
	<path id="XMLID_72_" style="fill:#053F58;" d="M193.3,462.5c-0.3-2.3-2.5-3.9-4.8-3.5c-1.2,0.2-2.4,0.4-3.6,0.5
		c-2-2.4-5.2-3.8-8.6-3.2c-25.9,4.2-52.9,9.1-76.1,13.9c0-0.5,0-0.9,0.2-1.2c1-1.9,5.9-5.8,28-10.5c2.3-0.5,3.7-2.7,3.2-5
		c-0.5-2.3-2.7-3.7-5-3.2C106,454.7,96.2,459,93,465.1c-1.2,2.4-1.3,4.7-1,6.8c-1.1,0.2-2.3,0.5-3.4,0.7c-3.3,0.7-5.8,3.1-6.8,6
		c-1.2,0.3-2.4,0.5-3.6,0.8c-2.3,0.5-3.7,2.8-3.2,5c0.4,2,2.2,3.3,4.1,3.3c0.3,0,0.6,0,0.9-0.1c1-0.2,2-0.4,3-0.7
		c1.7,2.4,4.5,3.9,7.5,3.9c0.6,0,1.3-0.1,2-0.2c25.2-5.4,56.8-11.3,86.9-16.2c3.7-0.6,6.6-3.4,7.5-6.8c1-0.1,2-0.3,3-0.5
		C192.1,466.9,193.7,464.8,193.3,462.5z"/>
	<g id="XMLID_62_">
		<path id="XMLID_71_" style="fill:#E3D6BE;" d="M544.6,161.7c-1-6.7-3.7-39.4-9.2-78.2c-4.5-31.9-9.8-51.6-13.8-64.8
			c-4-13.2-7-19.9-15-18.6L386.2,18.4c-4.2,0.7-5.5,3.8-5.4,7c-0.1,0.8,0.1,1.8,0.3,2.8c9.8,41.7,15,83.5,21.1,125.3
			c0.5-2.4,1-4.8,1.6-7.2c1.5-5.5,4.7-12.9,11.5-13.5c6-0.5,10.2,4.5,12.8,9.2c6.9,12.6,5.9,29.8,2.4,43c-0.3,1.2-0.6,2.1-0.9,3
			c1.6-0.1,3.3-0.2,4.8-0.4c4.9-0.5,9.9-1,14.8-1.4c9.9-0.8,19.8-1.6,29.7-2.4c19.5-1.6,39-3.7,58.3-7.5
			C542.8,175.3,545.6,168.4,544.6,161.7z"/>
		<g id="XMLID_63_">
			
				<path id="XMLID_70_" style="fill:none;stroke:#053F58;stroke-width:6;stroke-linecap:round;stroke-linejoin:round;stroke-miterlimit:10;" d="
				M438,34.4c9.9-1.5,19.7-3,29.6-4.5"/>
			
				<path id="XMLID_69_" style="fill:none;stroke:#053F58;stroke-width:6;stroke-linecap:round;stroke-linejoin:round;stroke-miterlimit:10;" d="
				M410.7,66.3c30.1-4.7,60.2-9.6,90.3-14.6"/>
			
				<path id="XMLID_68_" style="fill:none;stroke:#053F58;stroke-width:6;stroke-linecap:round;stroke-linejoin:round;stroke-miterlimit:10;" d="
				M411.8,79.8c17.1-1.6,33.9-5.3,50.8-8.2c14.7-2.5,29.6-4.3,44.5-5.4"/>
			
				<path id="XMLID_67_" style="fill:none;stroke:#053F58;stroke-width:6;stroke-linecap:round;stroke-linejoin:round;stroke-miterlimit:10;" d="
				M414.6,91.6c30.2-4.2,60.4-8.5,90.6-12.7"/>
			
				<path id="XMLID_66_" style="fill:none;stroke:#053F58;stroke-width:6;stroke-linecap:round;stroke-linejoin:round;stroke-miterlimit:10;" d="
				M417.6,104.6c21.8-2.8,43.6-5.7,65.4-8.5c10.1-1.3,20.2-2.6,29.9-5.5"/>
			
				<path id="XMLID_65_" style="fill:none;stroke:#053F58;stroke-width:6;stroke-linecap:round;stroke-linejoin:round;stroke-miterlimit:10;" d="
				M419.9,119.2c15.1-3,30.4-5.3,45.7-6.9"/>
			
				<path id="XMLID_64_" style="fill:none;stroke:#053F58;stroke-width:6;stroke-linecap:round;stroke-linejoin:round;stroke-miterlimit:10;" d="
				M475,154.7c13-2.2,26-4.4,38.9-6.6"/>
		</g>
	</g>
	
		<line id="XMLID_61_" style="fill:none;stroke:#053F58;stroke-width:6;stroke-linecap:round;stroke-linejoin:round;stroke-miterlimit:10;" x1="221.3" y1="393.9" x2="217" y2="589"/>
	
		<path id="XMLID_60_" style="fill:none;stroke:#053F58;stroke-width:6;stroke-linecap:round;stroke-linejoin:round;stroke-miterlimit:10;" d="
		M140.1,503.5c3.5,6.8,13,10.3,18.4,4.8c5.4-5.5,7.2-13.4,8.6-20.9c9.6-52.6,18.3-105.6,23.6-158.8"/>
	<g id="XMLID_56_">
		
			<path id="XMLID_59_" style="fill:none;stroke:#053F58;stroke-width:6;stroke-linecap:round;stroke-linejoin:round;stroke-miterlimit:10;" d="
			M281.9,198.8c-3-3.9-7.9-6.2-12.8-6c-4.9,0.2-9.6,2.8-12.4,6.9"/>
		
			<path id="XMLID_58_" style="fill:none;stroke:#053F58;stroke-width:6;stroke-linecap:round;stroke-linejoin:round;stroke-miterlimit:10;" d="
			M214.9,197.7c-2.3-3.2-6.4-5-10.3-4.6c-3.9,0.4-7.6,2.9-9.3,6.4"/>
		
			<path id="XMLID_57_" style="fill:none;stroke:#053F58;stroke-width:6;stroke-linecap:round;stroke-linejoin:round;stroke-miterlimit:10;" d="
			M249.2,239.3c-5.8,4.1-21.5,3.7-27-0.7"/>
	</g>
	
		<path id="XMLID_55_" style="fill:none;stroke:#053F58;stroke-width:6;stroke-linecap:round;stroke-linejoin:round;stroke-miterlimit:10;" d="
		M433,190c5.2,3,10.4,6,14.7,10.1c4.3,4.2,7.6,9.7,7.9,15.6"/>
</g>
</svg>
