<?xml version="1.0" encoding="utf-8"?>
<!-- Generator: Adobe Illustrator 19.0.0, SVG Export Plug-In . SVG Version: 6.00 Build 0)  -->
<svg version="1.1" id="Layer_2" xmlns="http://www.w3.org/2000/svg" xmlns:xlink="http://www.w3.org/1999/xlink" x="0px" y="0px"
	 viewBox="0 0 500 500" style="enable-background:new 0 0 500 500;" xml:space="preserve">
<g id="XMLID_2_">
	<path id="XMLID_25_" style="fill:#00A294;" d="M449.2,147.9c-2.2-14.3-14.5-30.2-29.9-29.9c-9.4,0.2-19,2.2-28.3,3.4
		c-10.3,1.3-20.5,2.7-30.8,4c-21.9,2.8-43.8,5.7-65.7,8.5c-1.5-3-2.9-6-4.4-8.9c-15.7-31.9-31.4-64.7-50.3-94.9
		C232.3,18,222.4,7.1,208.5,2.2c-12.8-4.5-26.1-2.2-36.1,7c-12.6,11.5-19.6,29.9-27,44.8c-9.3,18.7-18.2,37.6-26.6,56.7
		c-16.4,37.5-39.3,105.4-52.5,142.3c-6.3,15.8-9.5,24.1-13.1,40.7c-3.4,15.6-4.2,36.9,0.4,52.3c4,13.3,13.7,24.7,27.8,27.7
		c14.7,3.1,25.7-5.2,32.4-17.7c0.4,44.1,0.7,90.8,1.1,121.8c-0.1,0.1-0.1,0.1-0.2,0.2c-5.6,6.4-10.8,7.9-15.5,14.9
		c-2.4,3.5-0.5,6.7,5.3,6.7c5.8,0,65.9,0,73.3,0c7.5,0,8.5-8.6,8.7-16.7c0.1-8.1-0.1-71.2-0.1-106.8c0-21.4,0.1-41.1,0.3-60
		c8.5,0.1,17.1,0.2,25.6,0.1c3.4,59.5,6.2,162.6,6.2,170.9c0,10.5,3.5,12.6,8.5,12.6c5.1,0,49.1,0.9,78.6,0c5.1-0.1,5-6,2.2-9.1
		c-2.8-3.1-10-8.7-14.4-11.8c-0.9-54.6-3.7-111.4-5.9-167c14.7-1.9,30.7-3.8,44.5-9.3c14-5.6,22-17.3,20-32.6
		c-2.1-16.3-10.7-32.1-17.1-47c-0.3-0.7-0.6-1.5-1-2.2c1.4,1,2.8,1.9,4.6,2.7c2.5,1.1,3.8,2.2,5.6,4.1c1.3,1.3,2.7,2.3,4.4,3
		c13,5.4,28.2-5.8,33-18.2c14.5-9.5,28.8-19.2,42.9-29.2C436.6,174.5,451.8,164.8,449.2,147.9z"/>
	
		<path id="XMLID_24_" style="fill:none;stroke:#053F58;stroke-width:6;stroke-linecap:round;stroke-linejoin:round;stroke-miterlimit:10;" d="
		M163.9,121.2c0,2.1,0,4.2,0,6.4"/>
	<g id="XMLID_20_">
		<path id="XMLID_23_" style="fill:#E3D6BE;" d="M296.2,226.7c-5.5-1.5-11.1-2.5-16.7-3.2c1.9-2.1,3.9-4.2,6.1-6.1
			c4.2-3.9,9.9-6.7,10.7-12.8c0.1-1-0.7-2.4-1.6-2.8c-6.2-2.7-12.5-4.5-19.1-5.2c0.7-1.2,1.3-2.5,2-3.7c1.3-2.4-0.4-4.6-2.8-4.9
			c-48.2-6.2-97.3-11.4-145.3-1.4c-0.1,0-0.2,0.1-0.3,0.1c-2.4-0.5-5.2,2-3.7,4.8c1.1,1.9,2.2,3.9,3.3,5.8c-2.7,0-5.4,0-8.2,0.1
			c-2.7,0-4.4,3.6-2.3,5.5c4.9,4.6,8.7,9.9,11.5,15.9c-2.5,0.4-4.9,0.9-7.4,1.5c-2,0.5-3,3-1.9,4.7c4.8,7.4,9,15.2,12.7,23.2
			c7.8-1.3,15.7-2.7,23.5-4c6.3-1.1,14.5-3.3,20.8-1.3c5.1,1.7,5,6.7,1.3,9.9c-4,3.4-15.3,6.4-20.1,9c4-1.3,14.4-2.5,18.6-3.1
			c4.2-0.6,5.7,4,4.2,6.7c-2.5,4.4-13.7,7.5-17.9,9.9c1.9-0.1,10.8-3.4,12.7-3.4c2.7,0,4.4,4.9,2.3,6.8c-9,8.2-19.6,14.1-31.3,17.2
			c0.6,4,1.1,8,1.4,12c-0.1,2.9-0.2,5.9,0,8.8c0.2,3.8,1.7,7.3,5.9,8.1c5.5,1,12.3-0.5,17.9-0.8c25.8-1.2,51.7-1.2,77.5,0
			c2.2,0.1,3.2-1.6,3.1-3.3c0.2-0.4,0.3-0.9,0.2-1.4c-0.8-17,5.2-33,11.9-48.3c3.1-7.2,6-14.8,10.9-20.9
			c5.1-6.3,11.8-10.9,18.6-15.3c0.8-0.5,1.2-1.1,1.4-1.8C298.9,232.4,299.7,227.6,296.2,226.7z"/>
		
			<path id="XMLID_22_" style="fill:none;stroke:#053F58;stroke-width:6;stroke-linecap:round;stroke-linejoin:round;stroke-miterlimit:10;" d="
			M134.4,221.9c0,0,27.6-5.1,41.9-5.4c33.2-0.6,66.4,2.6,98.9,9.3"/>
		
			<path id="XMLID_21_" style="fill:none;stroke:#053F58;stroke-width:6;stroke-linecap:round;stroke-linejoin:round;stroke-miterlimit:10;" d="
			M129.6,198c47.5-4.5,95.4-4.6,142.9-0.3"/>
	</g>
	<g id="XMLID_15_">
		
			<path id="XMLID_19_" style="fill:none;stroke:#053F58;stroke-width:6;stroke-linecap:round;stroke-linejoin:round;stroke-miterlimit:10;" d="
			M102.4,240.8c0.8,5.6,1.9,11.1,3.5,16.5"/>
		
			<path id="XMLID_18_" style="fill:none;stroke:#053F58;stroke-width:6;stroke-linecap:round;stroke-linejoin:round;stroke-miterlimit:10;" d="
			M124.8,236.7c-4.1,4.4-10.1,13.4-13.3,18.5c-9,14.6-17.2,29.7-24.4,45.2"/>
		
			<path id="XMLID_17_" style="fill:none;stroke:#053F58;stroke-width:6;stroke-linecap:round;stroke-linejoin:round;stroke-miterlimit:10;" d="
			M146.2,299.8c-4.3,2.2-9.5,2.5-13.9,0.7"/>
		
			<path id="XMLID_16_" style="fill:none;stroke:#053F58;stroke-width:6;stroke-linecap:round;stroke-linejoin:round;stroke-miterlimit:10;" d="
			M117.4,355.2c8-20.5,20-49.2,20-49.2"/>
	</g>
	<g id="XMLID_9_">
		
			<path id="XMLID_14_" style="fill:none;stroke:#053F58;stroke-width:6;stroke-linecap:round;stroke-linejoin:round;stroke-miterlimit:10;" d="
			M354.4,201.3c-1.5,9.7-9.6,17.7-21.7,15.3c-12.1-2.4-16.5-17.3-11.5-30.3"/>
		
			<path id="XMLID_13_" style="fill:none;stroke:#053F58;stroke-width:6;stroke-linecap:round;stroke-linejoin:round;stroke-miterlimit:10;" d="
			M364.7,209.7c-2.4,7.5-9.2,13.4-17,14.6"/>
		
			<path id="XMLID_12_" style="fill:none;stroke:#053F58;stroke-width:6;stroke-linecap:round;stroke-linejoin:round;stroke-miterlimit:10;" d="
			M388.2,141.7c-15.6,6.6-30.7,14.4-45.1,23.3c-0.9,0.5-1.8,1.1-2.8,1.1c-1,0.1-2-0.4-2.9-0.7c-7.1-2.6-14.5,1.5-19.6,7.1
			c-5.8,6.2-8.8,11.6-7.8,19.7c1,8.1,3.8,14.3,11.7,15.5"/>
		
			<path id="XMLID_11_" style="fill:none;stroke:#053F58;stroke-width:6;stroke-linecap:round;stroke-linejoin:round;stroke-miterlimit:10;" d="
			M378.7,140.3c0.4,1.9,0.1,3.9-0.6,5.7"/>
		
			<path id="XMLID_10_" style="fill:none;stroke:#053F58;stroke-width:6;stroke-linecap:round;stroke-linejoin:round;stroke-miterlimit:10;" d="
			M333.8,203.1c-0.2-4.9,1.2-9.8,4-13.8"/>
	</g>
	<g id="XMLID_3_">
		<path id="XMLID_8_" style="fill:#00A294;" d="M222.3,170.2c-15.8-2.4-31-12.3-37.4-27c-2.5-5.8-3.7-12.2-4-18.6
			c-0.5-10.5,1.3-21.3,6.6-30.4c4.5-7.6,11.2-13.6,18.5-18.4c7.6-5,16-9,24.9-10.6c23.4-4.1,48.7,10.5,56.8,32.8
			c6.9,18.9,0.6,39.3-12.5,53.8C261.6,167.1,243.3,173.4,222.3,170.2z"/>
		<path id="XMLID_7_" style="fill:#074059;" d="M255.2,110.3c-2.7-8.2-10.8-14.3-19.1-14.6c-8.2-0.2-15.9,5.1-20.1,13.9
			c-4.3,9-3.5,19,1.9,25.3c3.6,4.2,9.3,6.6,15,6.6c0.4,0,0.8,0,1.3,0c5.8-0.4,11.5-3.2,15.7-7.8
			C255.8,127.4,257.8,118.2,255.2,110.3z"/>
		
			<path id="XMLID_6_" style="fill:none;stroke:#053F58;stroke-width:6;stroke-linecap:round;stroke-linejoin:round;stroke-miterlimit:10;" d="
			M334.2,196.4c-18.5-14.4-39.5-31.6-57.6-46.4"/>
		<circle id="XMLID_5_" style="fill:#FFFFFF;" cx="217.1" cy="107.5" r="12"/>
		
			<path id="XMLID_4_" style="fill:none;stroke:#053F58;stroke-width:6;stroke-linecap:round;stroke-linejoin:round;stroke-miterlimit:10;" d="
			M221.1,170.2c-15.8-2.4-31-12.3-37.4-27c-2.5-5.8-3.7-12.2-4-18.6c-0.5-10.5,1.3-21.3,6.6-30.4c4.5-7.6,11.2-13.6,18.5-18.4
			c7.6-5,16-9,24.9-10.6c23.4-4.1,48.7,10.5,56.8,32.8c6.9,18.9,0.6,39.3-12.5,53.8C260.3,167.1,242,173.4,221.1,170.2z"/>
	</g>
</g>
</svg>
