<?xml version="1.0" encoding="utf-8"?>
<!-- Generator: Adobe Illustrator 19.0.0, SVG Export Plug-In . SVG Version: 6.00 Build 0)  -->
<svg version="1.1" id="Layer_1" xmlns="http://www.w3.org/2000/svg" xmlns:xlink="http://www.w3.org/1999/xlink" x="0px" y="0px"
	 viewBox="0 0 500 500" style="enable-background:new 0 0 500 500;" xml:space="preserve">
<g id="XMLID_16_">
	<path id="XMLID_35_" style="fill:#00A294;" d="M473.1,147.7c-3.6,3.1-13.8,11.3-18.5,14.8c-10.8,0.8-21.4,2.8-32.3,2.9
		c-10.1,0-56.9,3.9-92.3,7.8c2-6.9,3.6-14,4.2-20.9c1.2-14.2-5.3-25.8-19.2-30.6c-14.7-5.1-31.8-4.5-47.2-5.4
		c-34-2.1-68.1-3.2-102.2-3.4c-33.8-0.2-68.4-0.8-102.1,2.4c-13.6,1.3-25.8,5-35.9,14.6c-9.3,8.8-13,21-9.5,33.3
		c4.4,15.5,17.1,29,26.6,41.6c11.9,15.7,23,31.1,35.7,46.2c10.8,12.9,22,25.2,33.3,37.3c-0.3,0.2-0.6,0.4-0.9,0.7
		c-0.2,0.1-0.4,0.1-0.6,0.2c-13.6,7.4-11.7,27.9-12.7,40.8c-0.7,10.1-1.5,20.3-2.2,30.4c-0.7,9.2-1.8,18.6-1.1,27.8
		c1.2,15.1,9.1,30.9,25.4,34c16,3.1,30.5-6,41.3-16.8c10.9-11,21-23,31-34.9c4.6,4.4,9.9,8.6,15.1,10.5c9.9,3.5,18.7-0.6,25.1-7.5
		c-1.1,33.3-2.5,80.6-3.4,104.9c-4.1,4.4-8.6,8.4-13.4,12.1c-3.3,2.5-2,9.6,3.7,9.6c5.8,0,63.3,0,68.5,0c5.2,0,6.9-6.4,7.1-10.7
		c0.2-4.2-1.4-160.6-4.2-225.6c4-8,8-16,11.8-24.1c0.3-0.5,0.5-1.1,0.8-1.6c48.6-3.1,118.4-10.4,159.9-16.3c4-0.6,9.3-1.7,10.3-6.4
		c5-22.1,7.5-58.2,8-64C483.6,145.5,476.2,144.3,473.1,147.7z M142.8,352.6c-1.3-16-3.2-28.3-2.2-36.4c6,6.1,12,12.2,18,18.2
		C152.9,341.5,147,348.9,142.8,352.6z"/>
	<g id="XMLID_31_">
		
			<line id="XMLID_12_" style="fill:none;stroke:#FFFFFF;stroke-width:6;stroke-linecap:round;stroke-linejoin:round;stroke-miterlimit:10;" x1="85.8" y1="198.1" x2="78.8" y2="193.5"/>
		
			<line id="XMLID_11_" style="fill:none;stroke:#FFFFFF;stroke-width:6;stroke-linecap:round;stroke-linejoin:round;stroke-miterlimit:10;" x1="94" y1="170.1" x2="87.1" y2="165.5"/>
		
			<path id="XMLID_10_" style="fill:none;stroke:#FFFFFF;stroke-width:6;stroke-linecap:round;stroke-linejoin:round;stroke-miterlimit:10;" d="
			M121.5,181.2c-3.9,2.6-6.8,6.5-8.3,11"/>
	</g>
	<g id="XMLID_18_">
		<path id="XMLID_29_" style="fill:#FFFFFF;" d="M338.1,235.6c-0.1-1.6-0.8-2.7-1.9-3.4c0.7-2.7-1.6-6.5-5.4-5.9
			c-5.2,0.7-10.4,1.6-15.5,2.7c-1.2,0.3-2.5,0.5-3.8,0.7c-2.4-2.8-8.1-1.9-7.9,2.7c3.2,71.8,4.6,232,4.9,262.5
			c0,2.8,2.3,5.1,5.2,5.1h20.5c2.8,0,5.2-2.3,5.2-5.1C339.8,464.7,341.7,306.4,338.1,235.6z"/>
		<path id="XMLID_8_" style="fill:#E3D6BE;" d="M416.7,200.5c0.2-11.7-0.8-23.5-3-35.1c-3.3-17.4-10.3-41.7-31-44.3
			c-24.6-3.1-50.5-1.1-75.1,0.6c-25.3,1.7-63.1,4.1-88.4,6.3c-12.3,1.1-29.1,2.8-40.7,5.4c-11.6,2.7-15.8,10-18.2,16.8
			c-3.1,9.2-5.5,22-7,31.6c-3.1,19.1-3.9,35.4-3.8,54.8c0,0.6,0.1,1,0.3,1.5c-0.3,0.3-0.7,0.7-1,1.1c-11.7,15.1-20.3,25.1-29.9,41.9
			c-1,1.7-1.8,3.5-2.6,5.4c0.5-0.3,1-0.7,1.6-1c2.6-1.5,7.1-0.3,6.9,3.3c-0.1,1-0.2,1.8-0.3,2.7c1.9-2,4.1-3.8,6.5-5.3
			c3.4-2.1,7.3,0.7,6.8,4.5c-0.2,1.5-0.6,2.9-1.2,4.3c2.1-1.5,4.4-2.7,6.8-3.8c3.7-1.5,7.1,2.8,5.4,6.1l-6.4,12.8
			c-0.6,1.1-1,2.5-1.3,4c9.2-4,17.6-12.3,25.2-17.6c16.3-11.4,37.6-34.4,50.1-49.9c0.6-0.7,0.8-1.5,0.8-2.3h195.5
			c2.7,0,4.1-2,4.3-4.1c0.4-0.6,0.7-1.3,0.7-2.2C418,228.7,416.6,203.9,416.7,200.5z"/>
		<g id="XMLID_25_">
			
				<path id="XMLID_7_" style="fill:none;stroke:#FFFFFF;stroke-width:6;stroke-linecap:round;stroke-linejoin:round;stroke-miterlimit:10;" d="
				M177.2,137.8c9.4-1.7,21.8,4.9,26.6,13.1c4.2,7.2,6.4,15.4,7.5,23.6c2.9,20.5,5.4,43.5,6.3,64.3"/>
			
				<path id="XMLID_6_" style="fill:none;stroke:#FFFFFF;stroke-width:6;stroke-linecap:round;stroke-linejoin:round;stroke-miterlimit:10;" d="
				M155.1,240.7c18.8-0.3,37.6,0.2,56.4,1.5"/>
		</g>
		<g id="XMLID_22_">
			
				<path id="XMLID_5_" style="fill:none;stroke:#FFFFFF;stroke-width:6;stroke-linecap:round;stroke-linejoin:round;stroke-miterlimit:10;" d="
				M91.9,34.8c0.9,16.2,2.9,33.1,12,46.6c9.2,13.5,27.5,22.1,42.5,15.3c10.5-4.8,17-16.3,17.6-27.7c0.4-8.2-2.3-17-8.9-22
				c-10.7-8.1-20.4-4.8-25.5,9.7c-12.8,36.6-2.9,79.1,19.4,111c8.7,12.4,35.4,24.8,50.6,23.4"/>
			
				<path id="XMLID_4_" style="fill:none;stroke:#FFFFFF;stroke-width:6;stroke-linecap:round;stroke-linejoin:round;stroke-miterlimit:10;" d="
				M79.9,8c7.7,7.8,14.9,7.7,18.5,7.5c2.4-0.1,5.1-1.9,6.1-4.1c0.9-2-0.6-4.5-2.6-5.4c-2-0.9-4.4-0.8-6.6-0.6
				c-4.9,0.4-9.8,0.8-14.7,1.1c-0.8,0.1-1.6,0.1-2.3,0.6c-0.7,0.4-1.1,1.1-1.5,1.8c-1.3,2.3-2.7,4.6-4,6.9c-1.2,2.1-2.4,4.3-2.4,6.7
				c0.1,2.4,2.3,5.5,4.8,5.5c2.4,0,3.6-1.5,4.4-2.6C83.2,20.6,82.4,15.9,79.9,8z"/>
		</g>
		<g id="XMLID_19_">
			
				<path id="XMLID_3_" style="fill:none;stroke:#FFFFFF;stroke-width:6;stroke-linecap:round;stroke-linejoin:round;stroke-miterlimit:10;" d="
				M314.7,177.2c-3.8-42.7-6.6-85.6-8.5-128.4c14.1,1.1,28.3,1,42.4-0.3c1,8.7,0.9,17.5-0.2,26.1c-13.4,0.2-26.7,0.5-40.1,0.9"/>
			<path id="XMLID_2_" style="fill:#FFFFFF;" d="M329.8,179.5c-0.7-5.9-5.4-11.1-11.2-12.4c-5.2-1.2-10.9,0.8-14.3,4.8
				c-0.3,0.2-0.6,0.4-0.8,0.7c-3.6,5.3-1.8,13.4,3.8,17.2c2.4,1.6,5.3,2.4,8.4,2.4c3.2,0,6.5-0.9,9.3-2.8c1.6-1,2.7-2.1,3.5-3.4
				C329.7,184.4,330.1,182.1,329.8,179.5z"/>
		</g>
	</g>
	<path id="XMLID_1_" style="fill:#00A294;" d="M412.3,129.1c-0.3-10.2-1.5-22.1-12.4-26.4c-5.5-2.2-11.8-1.8-17.5-1.8
		c-7.4,0-14.8,0.1-22.2,0.3c-11.7,0.4-23.8,1.8-30.3,12.6c-1.2,2-0.8,3.9,0.4,5.2c0.8,3,3.7,5.1,7.7,4.5c1.3-0.2,2.5-0.6,3.8-1
		c0.8-0.1,1.5-0.1,2.3-0.3c2.2-0.4,4.2-1.2,6.2-2.1c2.7-0.3,5.3-0.6,8-0.9c2,8.6,2.2,16.8,1.2,25.7c-0.6,5.4,0.3,11.9,7,12.8
		c6.8,0.9,9.3-6.6,11.2-11.8c0.5-1.3,0.8-2.6,1.2-3.9c-0.2,4.2-0.3,8.3-0.5,12.5c-0.1,2.6,2.3,4.7,4.8,4.8c7.7,0.2,10.5-7.7,12.1-14
		c0.1-0.3,0.1-0.7,0.2-1c-0.1,4.1,0.1,8.1,1.4,11.9c1,2.6,4.4,4.8,7.1,2.9C413.6,152.4,412.7,139.5,412.3,129.1z"/>
</g>
</svg>
