<?xml version="1.0" encoding="utf-8"?>
<!-- Generator: Adobe Illustrator 19.0.0, SVG Export Plug-In . SVG Version: 6.00 Build 0)  -->
<svg version="1.1" id="Layer_1" xmlns="http://www.w3.org/2000/svg" xmlns:xlink="http://www.w3.org/1999/xlink" x="0px" y="0px"
	 viewBox="-92 290.4 425.2 212.6" style="enable-background:new -92 290.4 425.2 212.6;" xml:space="preserve">
<style type="text/css">
	.st0{fill:#E0861A;}
	.st1{fill:#CC7B16;}
	.st2{fill:#F7941D;}
	.st3{fill:#E6E7E8;}
	.st4{fill:#00AEEF;}
	.st5{fill:#231F20;}
</style>
<g>
	<g>
		<path class="st0" d="M95.2,396.5H72.6c-0.5,0-0.8-0.4-0.8-0.8v-20.6c0-0.5,0.4-0.8,0.8-0.8h22.6c0.7,0,1.1,0.7,0.7,1.3l-5.7,9.4
			c-0.2,0.3-0.2,0.6,0,0.9l5.7,9.4C96.3,395.8,95.9,396.5,95.2,396.5z"/>
		<path class="st1" d="M77.3,376.7l-5.5-2.4v21.3c0,0.5,0.4,0.9,0.9,0.9h6.8L77.3,376.7z"/>
		<path class="st2" d="M76.4,391.9H52.3v-22.2h24.1c0.5,0,0.9,0.4,0.9,0.9v20.5C77.3,391.5,76.9,391.9,76.4,391.9z"/>
		<rect x="50.5" y="368.1" class="st3" width="1.8" height="47.8"/>
		<path class="st4" d="M52.9,368.1h-3.1c-0.3,0-0.5-0.2-0.5-0.5v-1c0-0.3,0.2-0.5,0.5-0.5h3.1c0.3,0,0.5,0.2,0.5,0.5v1
			C53.4,367.8,53.2,368.1,52.9,368.1z"/>
	</g>
	<g>
		<path class="st5" d="M100.9,396c-0.2-0.2-0.2-0.4-0.2-0.6v-24.7c0-0.3,0.1-0.5,0.2-0.6c0.2-0.2,0.4-0.2,0.6-0.2h1.9
			c0.3,0,0.5,0.1,0.6,0.2c0.2,0.2,0.2,0.4,0.2,0.6V393h12.6c0.3,0,0.5,0.1,0.7,0.2c0.2,0.1,0.2,0.4,0.2,0.6v1.4
			c0,0.3-0.1,0.5-0.3,0.6c-0.2,0.2-0.4,0.2-0.6,0.2h-15.3C101.2,396.2,101,396.2,100.9,396z"/>
		<path class="st5" d="M122.5,394.2c-1.5-1.6-2.4-3.8-2.5-6.5v-1.3v-1.2c0.2-2.7,1-4.9,2.5-6.5c1.5-1.6,3.6-2.4,6.1-2.4
			c2.8,0,4.9,0.9,6.4,2.6c1.5,1.8,2.3,4.1,2.3,7.2v0.7c0,0.3-0.1,0.5-0.2,0.6c-0.2,0.2-0.4,0.2-0.6,0.2h-13.1v0.3
			c0.1,1.6,0.6,3,1.5,4.2c0.9,1.2,2.2,1.7,3.7,1.7c1.2,0,2.1-0.2,2.9-0.7c0.7-0.5,1.3-0.9,1.7-1.4c0.2-0.3,0.4-0.5,0.5-0.5
			c0.1-0.1,0.3-0.1,0.6-0.1h1.7c0.2,0,0.4,0.1,0.6,0.2c0.2,0.1,0.2,0.3,0.2,0.5c0,0.6-0.3,1.2-1,2c-0.7,0.8-1.6,1.4-2.9,2
			c-1.2,0.6-2.7,0.8-4.3,0.8C126.1,396.6,124,395.8,122.5,394.2z M133.9,385.1L133.9,385.1c0-1.9-0.5-3.3-1.4-4.4
			c-1-1.1-2.2-1.7-3.8-1.7s-2.9,0.6-3.8,1.7c-0.9,1.1-1.4,2.5-1.4,4.3v0.1H133.9z"/>
		<path class="st5" d="M143.5,389.6v-10h-3c-0.3,0-0.5-0.1-0.6-0.2c-0.2-0.1-0.2-0.4-0.2-0.6v-1.2c0-0.3,0.1-0.5,0.2-0.6
			c0.2-0.2,0.4-0.2,0.6-0.2h3v-6.4c0-0.3,0.1-0.5,0.2-0.6c0.2-0.2,0.4-0.2,0.6-0.2h1.7c0.3,0,0.5,0.1,0.6,0.2
			c0.2,0.2,0.2,0.4,0.2,0.6v6.3h4.7c0.3,0,0.5,0.1,0.6,0.2c0.2,0.2,0.2,0.4,0.2,0.6v1.2c0,0.3-0.1,0.5-0.2,0.6
			c-0.2,0.2-0.4,0.2-0.6,0.2h-4.7v9.9c0,1.3,0.2,2.2,0.6,2.9s1.1,1,2.1,1h2.3c0.3,0,0.5,0.1,0.6,0.2c0.2,0.2,0.2,0.4,0.2,0.6v1.2
			c0,0.3-0.1,0.5-0.2,0.6c-0.2,0.2-0.4,0.2-0.6,0.2h-2.6C145.4,396.2,143.5,394,143.5,389.6z"/>
		<path class="st5" d="M163.7,395.8c-1.2-0.6-2.1-1.2-2.7-1.9c-0.6-0.7-0.9-1.3-0.9-1.8c0-0.3,0.1-0.4,0.3-0.6
			c0.2-0.1,0.4-0.2,0.6-0.2h1.6c0.2,0,0.3,0,0.4,0.1c0.1,0.1,0.2,0.2,0.4,0.3c0.6,0.7,1.2,1.3,1.9,1.7s1.7,0.6,2.9,0.6
			c1.4,0,2.4-0.3,3.3-0.8c0.8-0.5,1.2-1.2,1.2-2.2c0-0.6-0.2-1.1-0.5-1.5c-0.4-0.4-0.9-0.7-1.8-1c-0.8-0.3-2-0.6-3.6-1
			c-2.2-0.5-3.7-1.2-4.6-2.1c-0.9-0.9-1.4-2.1-1.4-3.5c0-0.9,0.3-1.8,0.8-2.7c0.6-0.9,1.4-1.6,2.5-2.1c1.1-0.5,2.4-0.8,3.9-0.8
			c1.6,0,2.9,0.3,4,0.8s2,1.1,2.5,1.8c0.6,0.7,0.8,1.3,0.8,1.8c0,0.2-0.1,0.4-0.2,0.6c-0.2,0.2-0.4,0.2-0.6,0.2h-1.4
			c-0.4,0-0.6-0.1-0.8-0.4c-0.4-0.5-0.8-0.8-1.1-1.1c-0.3-0.3-0.7-0.5-1.3-0.7c-0.6-0.2-1.2-0.3-2.1-0.3c-1.2,0-2.2,0.3-2.8,0.8
			c-0.7,0.5-1,1.2-1,2.1c0,0.5,0.1,1,0.4,1.3c0.3,0.4,0.8,0.7,1.6,1c0.8,0.3,1.9,0.6,3.5,1c2.4,0.5,4.1,1.2,5.1,2.1
			c1,0.9,1.5,2.1,1.5,3.6c0,1.1-0.3,2.1-0.9,2.9c-0.6,0.9-1.5,1.6-2.7,2.1s-2.7,0.8-4.3,0.8C166.4,396.6,164.9,396.3,163.7,395.8z"
			/>
		<path class="st4" d="M49.5,420c-0.2-0.2-0.2-0.4-0.2-0.6v-2.6c0-0.3,0.1-0.5,0.2-0.6c0.2-0.2,0.4-0.3,0.6-0.3h2.6
			c0.3,0,0.5,0.1,0.6,0.3c0.2,0.2,0.2,0.4,0.2,0.6v2.6c0,0.3-0.1,0.5-0.2,0.6c-0.2,0.2-0.4,0.2-0.6,0.2h-2.6
			C49.8,420.2,49.6,420.2,49.5,420z"/>
		<path class="st4" d="M61.2,419.8c-1.2-0.6-2.1-1.2-2.7-1.9c-0.6-0.7-0.9-1.3-0.9-1.8c0-0.3,0.1-0.4,0.3-0.6
			c0.2-0.1,0.4-0.2,0.6-0.2h1.6c0.2,0,0.3,0,0.4,0.1c0.1,0.1,0.2,0.2,0.4,0.3c0.6,0.7,1.2,1.3,1.9,1.7s1.7,0.6,2.9,0.6
			c1.4,0,2.4-0.3,3.3-0.8c0.8-0.5,1.2-1.2,1.2-2.2c0-0.6-0.2-1.1-0.5-1.5c-0.4-0.4-0.9-0.7-1.8-1c-0.8-0.3-2-0.6-3.6-1
			c-2.2-0.5-3.7-1.2-4.6-2.1c-0.9-0.9-1.4-2.1-1.4-3.5c0-0.9,0.3-1.8,0.8-2.7c0.6-0.9,1.4-1.6,2.5-2.1s2.4-0.8,3.9-0.8
			c1.6,0,2.9,0.3,4,0.8s2,1.1,2.5,1.8c0.6,0.7,0.8,1.3,0.8,1.8c0,0.2-0.1,0.4-0.2,0.6c-0.2,0.2-0.4,0.2-0.6,0.2h-1.4
			c-0.4,0-0.6-0.1-0.8-0.4c-0.4-0.5-0.8-0.8-1.1-1.1c-0.3-0.3-0.7-0.5-1.3-0.7c-0.6-0.2-1.2-0.3-2.1-0.3c-1.2,0-2.2,0.3-2.8,0.8
			c-0.7,0.5-1,1.2-1,2.1c0,0.5,0.1,1,0.4,1.3c0.3,0.4,0.8,0.7,1.6,1c0.8,0.3,1.9,0.6,3.5,1c2.4,0.5,4.1,1.2,5.1,2.1
			c1,0.9,1.5,2.1,1.5,3.6c0,1.1-0.3,2.1-0.9,2.9c-0.6,0.9-1.5,1.6-2.7,2.1s-2.7,0.8-4.3,0.8C63.9,420.6,62.4,420.3,61.2,419.8z"/>
		<path class="st4" d="M79.8,418.3c-1.3-1.5-2-3.6-2-6.2v-10.6c0-0.3,0.1-0.5,0.2-0.6c0.2-0.2,0.4-0.2,0.6-0.2h1.7
			c0.3,0,0.5,0.1,0.6,0.2c0.2,0.2,0.2,0.4,0.2,0.6v10.4c0,3.8,1.7,5.7,5,5.7c1.6,0,2.9-0.5,3.8-1.5c0.9-1,1.4-2.4,1.4-4.2v-10.4
			c0-0.3,0.1-0.5,0.2-0.6c0.2-0.2,0.4-0.2,0.6-0.2h1.7c0.3,0,0.5,0.1,0.6,0.2c0.2,0.2,0.2,0.4,0.2,0.6v17.9c0,0.3-0.1,0.5-0.2,0.6
			c-0.2,0.2-0.4,0.2-0.6,0.2h-1.6c-0.3,0-0.5-0.1-0.6-0.2c-0.2-0.2-0.2-0.4-0.2-0.6v-1.7c-0.7,1-1.6,1.7-2.6,2.2s-2.2,0.7-3.7,0.7
			C83,420.6,81.1,419.8,79.8,418.3z"/>
		<path class="st4" d="M100.9,427.2c-0.2-0.2-0.2-0.4-0.2-0.6v-25c0-0.3,0.1-0.5,0.2-0.6c0.2-0.2,0.4-0.2,0.6-0.2h1.6
			c0.3,0,0.5,0.1,0.6,0.2c0.2,0.2,0.2,0.4,0.2,0.6v1.7c1.5-1.9,3.5-2.9,6.2-2.9c2.6,0,4.6,0.8,5.9,2.5c1.3,1.7,2,3.8,2.1,6.4
			c0,0.3,0,0.7,0,1.3c0,0.6,0,1,0,1.3c-0.1,2.6-0.8,4.7-2.1,6.4s-3.3,2.5-5.9,2.5c-2.7,0-4.7-1-6.1-2.9v8.8c0,0.3-0.1,0.5-0.2,0.6
			c-0.2,0.2-0.4,0.2-0.6,0.2h-1.7C101.3,427.4,101.1,427.3,100.9,427.2z M113.4,416c0.8-1.1,1.3-2.6,1.4-4.4c0-0.3,0-0.6,0-1.1
			c0-4.8-1.8-7.2-5.3-7.2c-1.8,0-3.1,0.6-4,1.8c-0.9,1.2-1.4,2.5-1.4,4.1c0,0.3,0,0.8,0,1.5c0,0.7,0,1.2,0,1.5c0,1.5,0.5,2.9,1.4,4
			c0.9,1.1,2.2,1.7,3.9,1.7C111.3,417.7,112.6,417.1,113.4,416z"/>
		<path class="st4" d="M123.3,427.2c-0.2-0.2-0.2-0.4-0.2-0.6v-25c0-0.3,0.1-0.5,0.2-0.6c0.2-0.2,0.4-0.2,0.6-0.2h1.6
			c0.3,0,0.5,0.1,0.6,0.2c0.2,0.2,0.2,0.4,0.2,0.6v1.7c1.5-1.9,3.5-2.9,6.2-2.9c2.6,0,4.6,0.8,5.9,2.5c1.3,1.7,2,3.8,2.1,6.4
			c0,0.3,0,0.7,0,1.3c0,0.6,0,1,0,1.3c-0.1,2.6-0.8,4.7-2.1,6.4s-3.3,2.5-5.9,2.5c-2.7,0-4.7-1-6.1-2.9v8.8c0,0.3-0.1,0.5-0.2,0.6
			c-0.2,0.2-0.4,0.2-0.6,0.2h-1.7C123.6,427.4,123.4,427.3,123.3,427.2z M135.8,416c0.8-1.1,1.3-2.6,1.4-4.4c0-0.3,0-0.6,0-1.1
			c0-4.8-1.8-7.2-5.3-7.2c-1.8,0-3.1,0.6-4,1.8c-0.9,1.2-1.4,2.5-1.4,4.1c0,0.3,0,0.8,0,1.5c0,0.7,0,1.2,0,1.5c0,1.5,0.5,2.9,1.4,4
			c0.9,1.1,2.2,1.7,3.9,1.7C133.6,417.7,135,417.1,135.8,416z"/>
		<path class="st4" d="M146.9,418.3c-1.5-1.6-2.3-3.6-2.4-6.2v-1.6v-1.6c0.1-2.6,0.9-4.7,2.4-6.2c1.5-1.6,3.6-2.3,6.3-2.3
			s4.8,0.8,6.3,2.3c1.5,1.6,2.3,3.6,2.4,6.2c0,0.6,0.1,1.1,0.1,1.6s0,1.1-0.1,1.6c-0.1,2.6-0.9,4.7-2.4,6.2
			c-1.5,1.6-3.6,2.3-6.4,2.3S148.4,419.8,146.9,418.3z M157.1,416.3c0.9-1,1.4-2.5,1.5-4.4c0-0.3,0-0.7,0-1.4s0-1.2,0-1.4
			c-0.1-1.9-0.6-3.4-1.5-4.4s-2.2-1.5-3.8-1.5s-2.9,0.5-3.8,1.5c-0.9,1-1.4,2.5-1.5,4.4v1.4v1.4c0.1,1.9,0.6,3.4,1.5,4.4
			s2.2,1.5,3.8,1.5C154.9,417.8,156.2,417.3,157.1,416.3z"/>
		<path class="st4" d="M167.1,420c-0.2-0.2-0.2-0.4-0.2-0.6v-17.8c0-0.3,0.1-0.5,0.2-0.6c0.2-0.2,0.4-0.3,0.6-0.3h1.6
			c0.3,0,0.5,0.1,0.7,0.2c0.2,0.2,0.2,0.4,0.2,0.7v1.7c1-1.7,2.8-2.6,5.2-2.6h1.5c0.3,0,0.5,0.1,0.6,0.2c0.2,0.2,0.2,0.4,0.2,0.6
			v1.4c0,0.3-0.1,0.5-0.2,0.6c-0.2,0.2-0.4,0.2-0.6,0.2h-2.1c-1.4,0-2.5,0.4-3.3,1.2c-0.8,0.8-1.2,1.9-1.2,3.3v11.2
			c0,0.3-0.1,0.5-0.3,0.6c-0.2,0.2-0.4,0.2-0.6,0.2h-1.7C167.5,420.2,167.3,420.2,167.1,420z"/>
		<path class="st4" d="M182.7,413.6v-10.1h-3c-0.3,0-0.5-0.1-0.6-0.2c-0.2-0.1-0.2-0.4-0.2-0.6v-1.2c0-0.3,0.1-0.5,0.2-0.6
			c0.2-0.2,0.4-0.2,0.6-0.2h3v-6.3c0-0.3,0.1-0.5,0.2-0.6c0.2-0.2,0.4-0.2,0.6-0.2h1.7c0.3,0,0.5,0.1,0.6,0.2
			c0.2,0.2,0.2,0.4,0.2,0.6v6.3h4.7c0.3,0,0.5,0.1,0.6,0.2c0.2,0.2,0.2,0.4,0.2,0.6v1.2c0,0.3-0.1,0.5-0.2,0.6
			c-0.2,0.2-0.4,0.2-0.6,0.2H186v9.8c0,1.3,0.2,2.2,0.6,2.9c0.4,0.7,1.1,1,2.1,1h2.3c0.3,0,0.5,0.1,0.6,0.2c0.2,0.2,0.2,0.4,0.2,0.6
			v1.2c0,0.3-0.1,0.5-0.2,0.6c-0.2,0.2-0.4,0.2-0.6,0.2h-2.6C184.7,420.2,182.7,418,182.7,413.6z"/>
	</g>
	<path class="st5" d="M156.8,373.6c-0.1-0.1-0.1-0.2-0.1-0.4l0.5-3c0-0.5,0.3-0.7,0.6-0.7h1.1c0.1,0,0.2,0,0.3,0.1
		c0.1,0.1,0.1,0.2,0.1,0.3c0,0.2,0,0.3-0.1,0.5l-1.1,2.9c-0.1,0.2-0.2,0.3-0.3,0.4c-0.1,0.1-0.2,0.1-0.4,0.1H157
		C157,373.8,156.9,373.7,156.8,373.6z"/>
</g>
</svg>
