<?xml version="1.0" encoding="utf-8"?>
<!-- Generator: Adobe Illustrator 19.0.0, SVG Export Plug-In . SVG Version: 6.00 Build 0)  -->
<svg version="1.1" id="theo-superman" xmlns="http://www.w3.org/2000/svg" xmlns:xlink="http://www.w3.org/1999/xlink" x="0px"
	 y="0px" viewBox="0 0 595.3 594.9" style="enable-background:new 0 0 595.3 594.9;" xml:space="preserve">
<g id="XMLID_54_">
	<path id="XMLID_80_" style="fill:#F89520;" d="M304.5,188.7c-0.6-1.2-1.7-1.8-2.8-2c-0.3-1.9-2.1-3.7-4.4-3.1
		c-61.3,16.8-119.8,42.5-181.1,59.5C86,251.6,55,256.1,24.7,263.9c-3.8,1-7.7,2-11.5,3.2c-3.3,1-7.4,1.6-10.3,3.5
		c-5.2,3.2-2.2,8.8,0.5,12.7c6.9,10.2,17.1,16.1,28.5,19.5c11.1,3.3,23.7,4.5,32.8,12.3c9.7,8.3,13.2,21.9,23.3,29.9
		c8.7,7,40.4,11.8,56.9,19.9s13.9,17.7,24.5,26.9c10.6,9.2,26.8,13.5,31.1,14c4.3,0.5,6.5,0.3,8.1-0.9
		c24.6-17.7,48.8-35.4,70.8-56.1c17.9-14.4,30.6-32.5,34.8-56.2c2.2-12.5,2.3-25.4,1.8-38.1c-0.6-14.7-1.3-29.7-4.3-44.1
		C310.2,203,307.9,195.7,304.5,188.7z"/>
	<path id="XMLID_78_" style="fill:#00A294;" d="M382.9,372.7c5.9-10.9,7.6-24.4,10.3-36.4c5.9-26.4,11.1-53.1,15.6-79.8
		c4.4-26.5,9.3-53.6,11-80.5c0.7-10.9-0.6-21.9-7-31c-5.9-8.4-15.1-12.9-25.4-11.6c-12.9,1.5-25.4,9.8-36.6,15.6
		c-14.1,7.4-28.7,16.8-42.3,25c-39.3,23.6-66.6,42.6-105.9,69.8c-5.4,3.7-10.6,7.6-13.5,13c-5,9.1-0.4,18.4,6.8,24.7
		c9.1,8,20,14.2,29.8,21.3c21.5,15.5,42.4,31.8,64.5,46.5c10.7,7.1,21.7,13.9,33,20c10.3,5.5,21.5,11.8,33,14.6
		C367.2,386.7,377.4,383,382.9,372.7z"/>
	
		<line id="XMLID_77_" style="fill:none;stroke:#053F58;stroke-width:6;stroke-linecap:round;stroke-linejoin:round;stroke-miterlimit:10;" x1="357.3" y1="196.3" x2="357.3" y2="188.5"/>
	
		<line id="XMLID_76_" style="fill:none;stroke:#053F58;stroke-width:6;stroke-linecap:round;stroke-linejoin:round;stroke-miterlimit:10;" x1="387.5" y1="203.1" x2="387.4" y2="195.4"/>
	
		<path id="XMLID_75_" style="fill:none;stroke:#053F58;stroke-width:6;stroke-linecap:round;stroke-linejoin:round;stroke-miterlimit:10;" d="
		M337.8,214.4c-1.1,13.3,6.2,26.3,13.8,29.3c2.8,1.1,5.9,1.3,9.1,1.1c15.4-1.2,25.4-13.7,26.2-22.9
		C371.9,221.6,351,219.9,337.8,214.4z"/>
	
		<path id="XMLID_74_" style="fill:none;stroke:#053F58;stroke-width:6;stroke-linecap:round;stroke-linejoin:round;stroke-miterlimit:10;" d="
		M346.1,235.8c8.6-4.3,19.9-2.5,25.4,3.9"/>
	<path id="XMLID_72_" style="fill:#00A294;" d="M231.9,99c-17.3-0.6-31.3,10-42.9,21.6c-14.4,14.3-23.4,26.1-37.1,41.1
		c-5,5.5-11.7,15.8-10.1,27.8c1.6,12.4,7.8,18.6,13.7,23.7c8.7,7.5,54.7,40.4,54.7,40.4s19.3-11.1,24.3-14.1
		c5.3-3.2,26.2-24.3,25-24.9c-19.3-9.9-38.9-19.7-55.9-33.2c5.8-9.9,13.8-17.5,20.3-24.1c1.5,2.8,5.1,7.5,8.4,8.3
		c5.5,1.3,10.7-1.6,15-4.6c4.3-3,8.3-6.6,8.5-12.2c0.1-2-0.2-3.8-0.8-5.5c0.2,0,0.5-0.1,0.7-0.1c4.6-1.3,6.2-6.2,4.8-10.4
		c-0.3-0.8-0.6-1.6-1-2.4c1.2-0.4,2.2-1.5,2.1-3.2C260.4,110.7,248.1,99.5,231.9,99z"/>
	<path id="XMLID_70_" style="fill:#00A294;" d="M588.5,196.5c-8.3-5.6-17.1-3.8-25.7-0.7c-3.2,0.5-6.3,1.4-9.3,2.4
		c-9,2.9-17.9,6.2-26.8,9.3c-38.1,13.3-94.8,33.8-132.9,47.1c-1.2,0.4-8.6,10.8-12.7,24.8c-2.4,8.2-3.8,16.8-4.9,25.3
		c-1,8.5-1.9,17,0.9,25.3c0.4,1.1,1.1,1.8,2,2c0.8,0.4,1.7,0.5,2.7,0.1c34.2-13.7,68.5-27.3,102.7-41c16.8-6.7,33.6-13.4,50.4-20.1
		c8.3-3.3,16.7-6.6,25-10c5-2,9.8-4.2,14.2-7.1c5.1,1.4,9.6,1.3,14.7-3c5-4.3,5.1-9.1,5.6-15.3c0.6-7.3,0.6-14.6-2-21.4
		c0.9-1,1.6-2,2.1-3.1C597,205.6,592.9,199.4,588.5,196.5z"/>
	<path id="XMLID_68_" style="fill:#00A294;" d="M334.1,354.7c-12.9-15.3-30.3-25.9-49.9-30.3c-2.6-0.6-4,1.9-3.5,3.9
		c-0.7,0.4-1.3,1.1-1.5,2.1c-4.9,22.6-9.2,47.1-15.1,69.5c-22.8,11.9-66.4,25-72.2,27c-5.8,2-13.9,42.9-15.5,65.3
		c-0.1,2,1.3,4,3.5,3.7c4.4-0.6,7.1-3.3,10.5-5.8c2.1-1.5,4.2-2.9,6.5-4.2c0.1,0,0.2,0,0.3-0.1c15.6-4.9,31.3-9.9,46.9-14.8
		c14.2-4.5,28.8-8.6,42.3-15.1c11.9-5.8,23.1-13.6,30.6-24.6c6.7-9.8,9.4-18.3,11.7-29.8c2.8-14,3.7-28.3,6.2-42.4
		c0.1-0.7,0-1.3-0.2-1.8C334.9,356.4,334.8,355.5,334.1,354.7z"/>
	<path id="XMLID_66_" style="fill:#00A294;" d="M259,312.2c-4.2-8.7-12.8-13.2-20.9-17.9c-9-5.2-18.2-9.8-28.4-12.4
		c-2.3-0.6-3.7,1.1-3.8,3c-49.7,40.2-108.6,66.3-168.1,88.6c-1.1,0.4-1.8,1.2-2,2.1c-0.6,0.5-1.1,1.1-1.3,2.1
		c-3.7,21.3-5.6,42.9-5.8,64.6c0,3.3,4.3,3.6,6.1,1.8c5.5-5.5,10.4-11.4,14.9-17.8c61.8-13.8,123.9-33.7,174.2-73.2
		c13.5-10.6,25.9-22.5,36.9-35.6C262.7,315.4,261.1,312.8,259,312.2z"/>
	
		<path id="XMLID_65_" style="fill:none;stroke:#053F58;stroke-width:6;stroke-linecap:round;stroke-linejoin:round;stroke-miterlimit:10;" d="
		M562,203.8c2.6,1.1,5,2.6,7.2,4.4c3.7,3,6.7,7,8.1,11.5c1.5,4.5,1.3,9.6-0.8,13.8c-0.8,1.6-1.9,3-3.4,3.9c-1.5,0.9-3.5,1.1-5,0.2
		c-0.9-0.6-1.6-1.5-2.2-2.4c-1.1-1.5-2.2-3.1-2.4-5c0,2.5-0.3,9.2-7.1,13.1"/>
	
		<path id="XMLID_64_" style="fill:none;stroke:#053F58;stroke-width:6;stroke-linecap:round;stroke-linejoin:round;stroke-miterlimit:10;" d="
		M592.8,215.4c-3.4,3.9-8.6,6.3-13.6,8"/>
	
		<path id="XMLID_63_" style="fill:none;stroke:#053F58;stroke-width:6;stroke-linecap:round;stroke-linejoin:round;stroke-miterlimit:10;" d="
		M591.8,235.8c-4.7,4.1-10.5,4.4-12.3,4c-1.8-0.4-3.5-1.5-4.2-3.2"/>
	
		<path id="XMLID_62_" style="fill:none;stroke:#053F58;stroke-width:6;stroke-linecap:round;stroke-linejoin:round;stroke-miterlimit:10;" d="
		M571.8,250.8c-2.7-2.4-3.8-6.4-2.8-9.8"/>
	
		<path id="XMLID_61_" style="fill:none;stroke:#053F58;stroke-width:6;stroke-linecap:round;stroke-linejoin:round;stroke-miterlimit:10;" d="
		M243.6,132c5.1,2.4,9.3,6.7,11.5,11.8"/>
	
		<path id="XMLID_60_" style="fill:none;stroke:#053F58;stroke-width:6;stroke-linecap:round;stroke-linejoin:round;stroke-miterlimit:10;" d="
		M247.3,116.8c5.5,2.5,10,7.3,12.1,12.9"/>
	
		<path id="XMLID_59_" style="fill:none;stroke:#053F58;stroke-width:6;stroke-linecap:round;stroke-linejoin:round;stroke-miterlimit:10;" d="
		M224.4,156.4c0.7-4.5,5.4-7.9,9.9-7.1"/>
	
		<path id="XMLID_58_" style="fill:none;stroke:#053F58;stroke-width:6;stroke-linecap:round;stroke-linejoin:round;stroke-miterlimit:10;" d="
		M227.5,146.1c0.3,1.5,0.8,3,1.4,4.3"/>
	<path id="XMLID_56_" style="fill:#053F58;" d="M381.4,221.1c-0.5-0.5-1.1-0.9-2-1c-6.2-0.8-11.7,0.2-17.8-0.5
		c-6.2-0.8-13.5-4.2-19.7-4.2c-11,0-2.4,15.2,0.7,19.2c1.2,1.6,3.2,1.7,4.8,0.7c3.7-2.3,8-3.1,12.3-2.4c4.2,0.7,6.7,3.2,10.3,5.2
		c8.3,4.7,12.3-6,15.9-11.7C387.8,223.2,384,219.5,381.4,221.1z"/>
	
		<path id="XMLID_55_" style="fill:none;stroke:#053F58;stroke-width:6;stroke-linecap:round;stroke-linejoin:round;stroke-miterlimit:10;" d="
		M575.5,202.2c-3,0.4-5.8,2.1-7.6,4.5"/>
</g>
</svg>
