<svg xmlns="http://www.w3.org/2000/svg" viewBox="0 0 64.68 59.25"><defs><style>.cls-1{fill:#e0861a;}.cls-2{opacity:0.1;}.cls-3{fill:#f7941d;}</style></defs><g id="Layer_2" data-name="Layer 2"><g id="Layer_1-2" data-name="Layer 1"><g id="_Group_" data-name="&lt;Group&gt;"><g id="FLAG"><path class="cls-1" d="M63.57,33.58H33.69a1.08,1.08,0,0,1-1.11-1V6.82a1.08,1.08,0,0,1,1.11-1.05H63.57a1.05,1.05,0,0,1,.95,1.6L56.94,19.12a1,1,0,0,0,0,1.1L64.52,32A1.05,1.05,0,0,1,63.57,33.58Z"/><path class="cls-2" d="M39.85,8.78l-7.27-3V32.5a1.11,1.11,0,0,0,1.13,1.08h9Z"/><path class="cls-3" d="M39,27.81H9.06L11,0H39a.85.85,0,0,1,.85.86V27A.86.86,0,0,1,39,27.81Z"/><polygon class="cls-3" points="4.48 59.21 0 59.25 9.91 0.04 14.39 0 4.48 59.21"/></g></g></g></g></svg>