<?xml version="1.0" encoding="utf-8"?>
<!-- Generator: Adobe Illustrator 19.0.0, SVG Export Plug-In . SVG Version: 6.00 Build 0)  -->
<svg version="1.1" id="Layer_2" xmlns="http://www.w3.org/2000/svg" xmlns:xlink="http://www.w3.org/1999/xlink" x="0px" y="0px"
	 viewBox="0 0 500 500" style="enable-background:new 0 0 500 500;" xml:space="preserve">
<g id="XMLID_2_">
	<path id="XMLID_33_" style="fill:#00A294;" d="M436.1,178c-11.1-8.1-26.3-6.5-38.6-2.8c-13.9,4.2-27.3,10.3-40.8,15.6
		c-7.7,3.1-15.8,5.4-23.9,7.4c-3.9-6.4-7.8-12.7-11.8-19c-11-17.3-22.1-35.2-34.8-51.3c-5.1-6.5-11.5-12.2-19.8-14.1
		c-7.6-1.8-15.1,0.4-20.3,6.2c-6.5,7.4-9.4,18.4-12.7,27.4c-4.2,11.3-8.1,22.7-11.7,34.3c-2.7,8.7-6.7,23.3-10.6,38.4
		c-11.4,3.1-22.5,5.6-34.1,8.9c-14.8,4.1-31.3,6.1-46.8,4.7c-13.3-1.2-28.9-5.4-37.5,8.3c-7.1,11.4-4.4,29.4,8.3,35.7
		c6.6,3.3,14.9,3.5,21.2-0.6c2.4-1.6,4.2-3.6,5.6-5.8c0.9,0.2,1.9,0.3,2.9,0.4c5.3,0.7,10.6,1,15.9,1.1c11.4,0.2,22.8-1,33.9-3.4
		c6.8-1.4,13.6-3.3,20.1-5.7c-1.5,6.5-2.4,11.2-2.6,12.9c-1.3,4.8-2.1,9.7-1,14.2c1.8,7.7,9.1,10.7,16.4,10.6
		c5.8,0,11.7-0.8,17.6-1.7c0.1,28.8-3.1,57.7-4,86.5c-4.1,4.1-7.7,8.6-10.8,13.5c-0.9,1.4-0.2,2.8,0.9,3.4c0.4,0.7,1.1,1.2,2.2,1.2
		h46.7c0.9,0,1.5-0.4,1.9-0.9c0.8-0.4,1.5-1.1,1.5-2.3l4.6-105.8c5.9-0.6,11.9-1.2,17.8-1.9c13.5,34.2,26.2,68.7,38.3,103.5
		c0.4,1,1,1.6,1.8,1.9c0.8,0.4,1.7,0.4,2.6-0.2c8.3-5.1,16.5-10.2,24.8-15.4c3.9-2.4,7.9-4.9,11.8-7.3c2.9-1.8,6-3.2,6.6-6.8
		c0.2-1-0.2-1.7-0.8-2.2c-0.2-0.6-0.7-1.1-1.4-1.3c-4.5-1.6-9.1-2.9-13.8-3.8c-5.7-15.4-11.5-30.8-17.2-46.1
		c-2.6-7.1-7.7-19.1-11.9-29.5c7.9-1.9,16.3-4,23.4-7.8c7.7-4.1,11.6-11.3,9.5-20c-2.1-8.8-7.6-17-12.1-24.8
		c6.5-1.8,12.9-3.8,19.1-5.9c13.6-4.7,24.5-9.4,38.3-15c2.3,1,6.2,2.7,8.8,3c5.7,0.8,11.5-1.3,15.2-5.8
		C441.4,202.1,445.6,185,436.1,178z"/>
	
		<path id="XMLID_32_" style="fill:none;stroke:#053F58;stroke-width:6;stroke-linecap:round;stroke-linejoin:round;stroke-miterlimit:10;" d="
		M415.4,212.6c-0.6,5.2-1.3,10.2-2,15"/>
	<g id="XMLID_27_">
		<path id="XMLID_30_" style="fill:#F79520;" d="M499.9,108c0.1-2.1-1.2-3.4-2.8-3.8c-9.6-6.8-21.3-3.4-32-2.6
			c-12.2,0.8-24.2-1.2-35.6-5.6c-4.3-1.7-6.5,4.3-3.6,7c-0.7,0.7-1.1,1.6-1.1,2.8c0,11.4-0.3,22.9-0.9,34.3
			c-1.9,1.8-2.3,4.9,0.7,6.2c10.7,4.8,22.1,4.8,33.7,4.3c10.9-0.5,22.6-1.6,32.9,2.7c2,2.4,7.2,1.6,7.4-2.5c0.1-0.5,0.2-1,0.1-1.6
			C498.9,135.4,499.4,121.7,499.9,108z"/>
		
			<path id="XMLID_29_" style="fill:none;stroke:#053F58;stroke-width:6;stroke-linecap:round;stroke-linejoin:round;stroke-miterlimit:10;" d="
			M426.4,96.3c-1.9,10.9-4.9,67.9-5.8,73.9c-0.4,2.9-0.8,6-1.2,9"/>
		
			<path id="XMLID_28_" style="fill:none;stroke:#053F58;stroke-width:6;stroke-linecap:round;stroke-linejoin:round;stroke-miterlimit:10;" d="
			M444,121.7c6.2,2,12.6,3.9,19,3.1c4.2-0.5,8.3-2.2,12.4-1.3"/>
	</g>
	<g id="XMLID_21_">
		<path id="XMLID_25_" style="fill:#F79520;" d="M89.4,227.7c-0.2-0.8-0.6-1.6-1.4-2.3c-8.3-7.2-17-22.2-23.5-31
			c-0.6-0.7-1.2-1.2-1.9-1.4c-0.7-0.7-1.8-1.2-3.1-1.2c-5.3,0.1-10.6,1.9-14.9,5.1c-5.1,3.7-11,10.5-15.2,14.1
			c-7.2,6.2-13.9,8.6-24.2,11.3c-1.3,0.3-2.3,0.2-3.1,0.9c-1.9,1.1-3,3.6-1.3,5.9c5.7,7.5,13,21.5,16.5,30.2
			c-0.1,1.4,0.7,2.8,2.5,3.3c12.1,3.6,23.5-1.5,32.9-9c9.5-7.5,19.3-19.3,32.5-19.1C89.3,234.5,90.9,230,89.4,227.7z"/>
		
			<path id="XMLID_24_" style="fill:none;stroke:#053F58;stroke-width:6;stroke-linecap:round;stroke-linejoin:round;stroke-miterlimit:10;" d="
			M103.1,245.6c-13.8-18-27.4-36-41-54.2"/>
		
			<path id="XMLID_23_" style="fill:none;stroke:#053F58;stroke-width:6;stroke-linecap:round;stroke-linejoin:round;stroke-miterlimit:10;" d="
			M61,213.6c-6.1-0.7-11.3,4.1-15.6,8.5c-4.3,4.4-8.6,8.9-12.9,13.3c-3,3.1-6.3,6.4-10.6,7.2"/>
		
			<path id="XMLID_22_" style="fill:none;stroke:#053F58;stroke-width:6;stroke-linecap:round;stroke-linejoin:round;stroke-miterlimit:10;" d="
			M43.2,237.8c2.6-2.4,5.2-4.9,7.8-7.3"/>
	</g>
	<g id="XMLID_16_">
		
			<path id="XMLID_20_" style="fill:none;stroke:#053F58;stroke-width:6;stroke-linecap:round;stroke-linejoin:round;stroke-miterlimit:10;" d="
			M115.9,243.4c-4,0.1-7.9,1.7-10.7,4.5c-2.1,2-3.7,4.9-3.3,7.8c0.3,2.9,3.1,5.6,6,5.1c0.9-0.2,1.7-0.6,2.4-1c2.1-1.2,4.1-2.5,6-4
			c0,2.8,0.5,5.6,2,7.9c1.5,2.3,4,4.1,6.8,4"/>
		
			<path id="XMLID_19_" style="fill:none;stroke:#053F58;stroke-width:6;stroke-linecap:round;stroke-linejoin:round;stroke-miterlimit:10;" d="
			M92.4,268.8c3.2,1.5,7.2,1.4,10.4-0.2c3.2-1.6,5.6-4.7,6.4-8.1"/>
		
			<path id="XMLID_18_" style="fill:none;stroke:#053F58;stroke-width:6;stroke-linecap:round;stroke-linejoin:round;stroke-miterlimit:10;" d="
			M106.5,279.1c2.5,0.1,4.9-1.2,6.6-2.9c1.8-1.7,3-3.9,4.3-6.1c0.7-1.3,1.5-2.5,2.2-3.8"/>
		
			<path id="XMLID_17_" style="fill:none;stroke:#053F58;stroke-width:6;stroke-linecap:round;stroke-linejoin:round;stroke-miterlimit:10;" d="
			M95.1,249.6c2.1-0.9,4.5-1.2,6.8-0.8"/>
	</g>
	<g id="XMLID_9_">
		
			<path id="XMLID_15_" style="fill:none;stroke:#053F58;stroke-width:6;stroke-linecap:round;stroke-linejoin:round;stroke-miterlimit:10;" d="
			M412,177c4.3,0.4,8.4,2.9,10.7,6.5c0.4,0.6,0.8,1.3,1.1,2c1.4,2.8,2.5,5.8,2.2,8.9c-0.2,3.1-2.1,6.2-5.1,7.1
			c-2.4,0.7-9-0.8-8.4-9.1"/>
		
			<path id="XMLID_14_" style="fill:none;stroke:#053F58;stroke-width:6;stroke-linecap:round;stroke-linejoin:round;stroke-miterlimit:10;" d="
			M426.9,178.8c-1.8-0.4-3.7-0.1-5.2,0.9"/>
		
			<path id="XMLID_13_" style="fill:none;stroke:#053F58;stroke-width:6;stroke-linecap:round;stroke-linejoin:round;stroke-miterlimit:10;" d="
			M438.8,185.3c-0.4,1.9-1.8,3.5-3.4,4.6c-3.1,2.3-5.6,3.5-9.5,3.2"/>
		
			<path id="XMLID_12_" style="fill:none;stroke:#053F58;stroke-width:6;stroke-linecap:round;stroke-linejoin:round;stroke-miterlimit:10;" d="
			M437.6,200.1c-1.6,1.5-7.8,2.8-13.2,0.4"/>
		
			<path id="XMLID_11_" style="fill:none;stroke:#053F58;stroke-width:6;stroke-linecap:round;stroke-linejoin:round;stroke-miterlimit:10;" d="
			M431.2,210.2c-5,0.7-15.8,0.7-19.7-5.4"/>
		
			<path id="XMLID_10_" style="fill:none;stroke:#053F58;stroke-width:6;stroke-linecap:round;stroke-linejoin:round;stroke-miterlimit:10;" d="
			M410.3,211.8c-1.8-3.6,0.9-9.7,4.6-11"/>
	</g>
	<g id="XMLID_3_">
		
			<line id="XMLID_8_" style="fill:none;stroke:#053F58;stroke-width:6;stroke-linecap:round;stroke-linejoin:round;stroke-miterlimit:10;" x1="242.2" y1="200.6" x2="241.7" y2="207.5"/>
		
			<path id="XMLID_7_" style="fill:none;stroke:#053F58;stroke-width:6;stroke-linecap:round;stroke-linejoin:round;stroke-miterlimit:10;" d="
			M273.1,200.6c-0.3,2.3-0.6,4.6-0.9,6.9"/>
		
			<path id="XMLID_6_" style="fill:none;stroke:#053F58;stroke-width:6;stroke-linecap:round;stroke-linejoin:round;stroke-miterlimit:10;" d="
			M252.7,182.9c-1.7-0.9-5.3-1.3-7.1-0.7"/>
		
			<path id="XMLID_5_" style="fill:none;stroke:#053F58;stroke-width:6;stroke-linecap:round;stroke-linejoin:round;stroke-miterlimit:10;" d="
			M283.3,187.6c-2.2-1.3-4.9-1.8-7.5-1.6"/>
		
			<path id="XMLID_4_" style="fill:none;stroke:#053F58;stroke-width:6;stroke-linecap:round;stroke-linejoin:round;stroke-miterlimit:10;" d="
			M256.2,224.8c2.4-0.2,4.7-1.4,6.2-3.2"/>
	</g>
</g>
</svg>
