<?xml version="1.0" encoding="utf-8"?>
<!-- Generator: Adobe Illustrator 19.0.0, SVG Export Plug-In . SVG Version: 6.00 Build 0)  -->
<svg version="1.1" id="Layer_2" xmlns="http://www.w3.org/2000/svg" xmlns:xlink="http://www.w3.org/1999/xlink" x="0px" y="0px"
	 viewBox="-215 217.1 595.3 594.9" style="enable-background:new -215 217.1 595.3 594.9;" xml:space="preserve">
<g>
	<path style="fill:#063F58;" d="M94.9,486.8c-0.4-0.7-0.9-1.2-1.4-1.6c-4.8-14.1-9.9-28.1-15.3-42c-5.7-14.6-10.7-31.6-19.3-44.7
		c-8.9-13.6-26-14.7-40.8-16.8c-17.3-2.5-34.8-3.9-52.3-3.9c-12,0-25.6,2.2-23.5,17.5c1.1,7.9,4.6,15.8,7,23.4
		c2.9,9.1,5.9,18.3,8.8,27.4c5.6,17.3,11.1,34.6,16.7,51.9c2.1,6.5,3.6,13.9,7.3,19.7c3.6,5.7,9.6,8.3,15.7,10.6
		c36.4,13.7,74.7,22.3,113.2,27.4c2.7,0.4,5.7-2.8,5.4-5.4C114,527.6,106.9,506.1,94.9,486.8z"/>
	<path style="fill:#00A294;" d="M356.7,598.9c-2-19.5-11.7-38.7-18.8-56.7c-15.7-39.9-32.5-79.3-50.3-118.3
		c-17.7-38.7-35.3-78.4-56.9-115.1c-8.7-14.8-20.1-28.2-36.5-34.5c-15.1-5.8-31.1-3.6-43.4,7.1c-15.5,13.3-26,33.7-35.5,51.3
		c-11.8,22-21.3,45.7-32,68.3c-2.2,4.7-6.2,14-11.1,26.1c2,5.5,4,11,6,16.1l0,0c0,0.1,0,0.1,0.1,0.2c2.9,7.4,5.7,14.9,8.4,22.4
		c-11.1-2.9-22.1-5.8-33.2-8.6c-3-0.8-5.6,1-6.6,3.8c-2.1,5.4,0,9.8,3.4,13.5c-0.6,1.4-0.7,3.1-0.3,4.9c-1,3.4-0.3,6.3,1.4,8.8
		c-0.3-0.1-0.6-0.3-0.9-0.4c-11.3-5.8-23.1-12.1-36.1-12.7c-12.3-0.6-22.8,5.2-32.6,12c-2.9,2-5.7,4-8.5,6c-5-15.5-10-31.1-15-46.6
		c-2.9-9.1-5.9-18.3-8.8-27.4c-2.4-7.6-5.9-15.4-7-23.4c-2.1-15.4,11.5-17.5,23.5-17.5c5.7,0,11.4,0.2,17.1,0.5l-3.6-16.7
		c-0.1-0.6-0.3-1.1-0.6-1.5c1.4-1.6,2.7-3.3,3.9-5.2c5.6-9.7,7.2-22.8-2.7-30.1c-0.5-0.4-1-0.6-1.4-0.7c1-2.8,1.5-5.8,1.4-8.7
		c3.8,1.7,7.2,4,10.3,6.9c4.6,4.4,7.9,10.2,14,12.5c11.9,4.5,19.5-6.4,16.2-17.3c-7-22.9-32.2-35.9-54.9-36.3
		c-13.8-0.2-27.5,3.8-39.9,9.7c-11.9,5.6-28.4,13.8-35.8,25.3c-7.4,11.5-3.6,28.3-1.6,40.9c2.6,16.5,7.2,32.6,12,48.5
		c11.4,37.9,23.1,75.6,34.7,113.4c0.1,0.3,0.2,0.5,0.3,0.8c-9.4,6.7-18.7,13.3-28.1,20c-24.5,17.4-49.1,34.7-73.6,52.1
		c-13.2-1.4-26.5-1.5-39.8-0.3c-4.9,0.5-6.3,6.1-4.2,9c-0.2,1.4,0.2,2.9,1.4,4.2c12.6,13.6,25.3,27.1,38.1,40.5
		c6.6,6.9,13.2,13.7,19.8,20.6c4.5,4.6,9.4,10.9,16.4,11.2c7.1,0.4,13.7-5.5,19.4-9c8.1-5.1,16.1-10.1,24.2-15.2
		c12.5-7.9,25.1-15.8,37.6-23.7c-0.6,1.2-1.2,2.4-1.8,3.7c-11.1,23.7-21.3,47.7-31.8,71.7c-11,4.2-22.1,7.9-33.4,11.3
		c-2.6,0.8-3.8,2.9-3.8,5.1c-0.2,1.4,0.1,3,1,4.2c0.6,1.1,1.5,2,3,2.5c26.6,9.4,53.6,17.6,81,24.5c6.1,1.5,12.3,3,18.4,4.4
		c5.3,1.2,11.3,3.1,16.6,0.7c4-1.8,6.2-5.2,8-9.1c3.2-6.7,6.1-13.6,9.1-20.4c5.7-12.7,11.3-25.4,17-38.1
		c4.5-10.1,9.1-20.7,16.7-28.8c10-10.6,22.8-10.8,36.5-10.4c14.3,0.4,28.5,0.8,42.8,1.1c58.2,1.1,116.7,1.6,174.9-0.9
		c19.2-0.8,42.8-7.7,50.6-27.6C355.5,616.3,357.6,608.2,356.7,598.9z"/>
	<g>
		<path style="fill:none;stroke:#063F58;stroke-width:6;stroke-linecap:round;stroke-linejoin:round;stroke-miterlimit:10;" d="
			M139.6,403.4c-0.3-2.7-0.6-5.5-0.9-8.2"/>
		<path style="fill:none;stroke:#063F58;stroke-width:6;stroke-linecap:round;stroke-linejoin:round;stroke-miterlimit:10;" d="
			M177.2,400.1c-0.3-2.7-0.6-5.5-0.9-8.2"/>
		<path style="fill:none;stroke:#063F58;stroke-width:6;stroke-linecap:round;stroke-linejoin:round;stroke-miterlimit:10;" d="
			M194.6,422.7c-2.5,8.7-11.5,15.1-20.6,14.5"/>
	</g>
	<g>
		<path style="fill:none;stroke:#063F58;stroke-width:6;stroke-linecap:round;stroke-linejoin:round;stroke-miterlimit:10;" d="
			M-50.3,338.4c-7,6.2-11.7,17.2-6.1,24.6c4.1,5.5,11.9,6.4,18.8,6.2c5.4-0.2,12.2-2,13.2-7.3"/>
		<path style="fill:none;stroke:#063F58;stroke-width:6;stroke-linecap:round;stroke-linejoin:round;stroke-miterlimit:10;" d="
			M-79.9,328.9c2.2,1.3,1.6,4.7-0.1,6.6c-1.7,1.9-4.1,3.2-5.2,5.5c-1.4,2.8-0.2,6.4,2.2,8.5c2.4,2,5.7,2.6,8.9,2.4
			c6.8-0.5,12.8-4.6,18.1-8.8c4-3.2,7.9-6.7,10.3-11.2c4.2-7.9,2.7-18.4-3.4-24.8"/>
		<path style="fill:none;stroke:#063F58;stroke-width:6;stroke-linecap:round;stroke-linejoin:round;stroke-miterlimit:10;" d="
			M-21.9,302.7c2.4,8.4,2,17.9-2.9,25.1s-14.7,11.2-22.7,7.8"/>
	</g>
	<path style="fill:none;stroke:#063F58;stroke-width:6;stroke-linecap:round;stroke-linejoin:round;stroke-miterlimit:10;" d="
		M-46.7,616.3c3.4-14.5,13.8-26.9,26.6-34.6c12.9-7.6,28-10.7,43-10.6c9.4,0.1,19.1,1.5,27.5,5.7c6.8,3.4,12.6,8.5,18.2,13.6
		c10.4,9.5,20.4,19.3,30.1,29.5"/>
	<path style="fill:none;stroke:#063F58;stroke-width:6;stroke-linecap:round;stroke-linejoin:round;stroke-miterlimit:10;" d="
		M-59.5,511.2c9-5.4,26.4-18.5,26.4-18.5"/>
	<g>
		<path style="fill:none;stroke:#063F58;stroke-width:6;stroke-linecap:round;stroke-linejoin:round;stroke-miterlimit:10;" d="
			M76.7,442.9c16.9-6.3,37.9,3.6,43.9,20.5c0.8,2.3,1.4,4.7,2.9,6.6c1.2,1.5,2.9,2.5,4.6,3.5c27.9,16.6,55.7,33.2,83.6,49.8"/>
		<path style="fill:none;stroke:#063F58;stroke-width:6;stroke-linecap:round;stroke-linejoin:round;stroke-miterlimit:10;" d="
			M202.1,516.5c9.7-5.9,19.3-11.8,29-17.8"/>
		<path style="fill:none;stroke:#063F58;stroke-width:6;stroke-linecap:round;stroke-linejoin:round;stroke-miterlimit:10;" d="
			M51,477.1c7.4,4.4,14.4,8.2,22.7,10.8"/>
		<path style="fill:none;stroke:#063F58;stroke-width:6;stroke-linecap:round;stroke-linejoin:round;stroke-miterlimit:10;" d="
			M45.9,487.4c0,8.5,10.6,23.5,58.6,53.6c47.9,30.1,76.2,47.7,94.4,49.2c17.8,1.5,33.8-9.6,48.2-20.2c15.8-11.6,31.6-23.2,47.4-34.8
			"/>
		<path style="fill:none;stroke:#063F58;stroke-width:6;stroke-linecap:round;stroke-linejoin:round;stroke-miterlimit:10;" d="
			M54.1,494.2c6,3.3,14.9,6.9,20.9,10.2"/>
		<path style="fill:none;stroke:#063F58;stroke-width:6;stroke-linecap:round;stroke-linejoin:round;stroke-miterlimit:10;" d="
			M86.8,462.5c5.7,1.9,11.7,3.2,17.7,3.7"/>
	</g>
	
		<line style="fill:none;stroke:#063F58;stroke-width:6;stroke-linecap:round;stroke-linejoin:round;stroke-miterlimit:10;" x1="81" y1="650.6" x2="377" y2="650.6"/>
</g>
</svg>
