<?xml version="1.0" encoding="utf-8"?>
<!-- Generator: Adobe Illustrator 19.0.0, SVG Export Plug-In . SVG Version: 6.00 Build 0)  -->
<svg version="1.1" xmlns="http://www.w3.org/2000/svg" xmlns:xlink="http://www.w3.org/1999/xlink" x="0px" y="0px"
	 viewBox="0 0 190.8 164.1" xml:space="preserve">
<path class="hand" d="
	M4,160.1h137.1c2,0,4-0.7,5.5-2l35.7-30.4h0c5.3-4.6,5.9-12.7,1.2-18c-4.6-5.3-12.7-5.9-18-1.2v0l-24.6,19.4
	c-1.6,1.2-3.5,1.9-5.4,1.9H77.7h30.8c7,0,12.8-5.7,12.8-12.8c0-7-5.7-12.8-12.8-12.8H55.2c-1.7,0-3.4,0.5-4.9,1.5L32,118.1
	c-1.4,1-3.1,1.5-4.8,1.5H4"/>
<path id="heart" d="M95,19
	l-8.3-8.8c-8.3-8.3-21.7-8.3-30,0s-8.3,21.7,0,30h0L95,79H95l38.4-38.8h0c8.3-8.3,8.3-21.7,0-30c-8.3-8.3-21.7-8.3-30,0L95,19"/>
</svg>